<svg version="1.1" xmlns="http://www.w3.org/2000/svg" viewBox="0 0 620 591" width="620" height="591">
  <!-- svg-source:excalidraw -->
  
  <defs>
    <style class="style-fonts">
      @font-face {
        font-family: "Virgil";
        src: url("https://excalidraw.com/Virgil.woff2");
      }
      @font-face {
        font-family: "Cascadia";
        src: url("https://excalidraw.com/Cascadia.woff2");
      }
    </style>
  </defs>
  <rect x="0" y="0" width="620" height="591" fill="#ffffff"></rect><g stroke-linecap="round" transform="translate(10 10) rotate(0 300 285.5)"><path d="M32.92 1.85 L567.71 0.19 L581.21 1.32 L593.33 9.09 L599.02 19.76 L598.31 33.94 L598.49 539.41 L598.24 553.02 L591.72 564.58 L580.69 570.69 L568.7 569.65 L31.14 569.34 L19.41 569.06 L9.01 561.44 L3.72 554.3 L1.66 538.52 L1.47 32.93 L2.4 18.18 L8.43 8.59 L16.44 2.07 L30.29 0.95" stroke="none" stroke-width="0" fill="#82c91e"></path><path d="M32 0 M32 0 C165.95 1.03, 299.06 1.89, 568 0 M32 0 C242.76 0.24, 453 0.07, 568 0 M568 0 C588.06 -1.62, 601.24 8.94, 600 32 M568 0 C589.92 -0.27, 601.86 12.74, 600 32 M600 32 C598.21 135.85, 598.28 241.34, 600 539 M600 32 C601.99 202.62, 601.45 372.89, 600 539 M600 539 C598.27 560.79, 588.46 571.15, 568 571 M600 539 C600.5 561.49, 588.85 572.68, 568 571 M568 571 C410.48 569, 254.67 568.95, 32 571 M568 571 C405.57 572.76, 243.33 572.25, 32 571 M32 571 C9.5 572.23, -0.29 558.88, 0 539 M32 571 C10.66 572.45, 0.63 558.23, 0 539 M0 539 C1.99 350.24, 1.77 159.55, 0 32 M0 539 C0.05 351.99, 0.63 164.32, 0 32 M0 32 C-1.31 10.19, 11.85 1.68, 32 0 M0 32 C-0.34 12.69, 12.6 2.04, 32 0" stroke="#000000" stroke-width="1" fill="none"></path></g><g stroke-linecap="round" transform="translate(42 64) rotate(0 111.5 101.5)"><path d="M32.2 0.54 L191.52 0.95 L205.36 2.39 L213.87 9.85 L222.42 19.52 L222.79 30.68 L223.22 172.51 L220.59 186.04 L216.52 195.97 L205.5 200.58 L189.02 202.58 L30.7 201.02 L16.37 201.11 L8.29 196.14 L1.15 185.36 L1.32 169.79 L1.37 25.69 L1.78 19.87 L7.99 6.56 L17.59 0.34 L32.9 -0.54" stroke="none" stroke-width="0" fill="#40c057"></path><path d="M32 0 M32 0 C70.6 0.7, 105.96 1.39, 191 0 M32 0 C73.69 -0.18, 113.36 -0.44, 191 0 M191 0 C212.38 1.53, 222.82 9.59, 223 32 M191 0 C214.16 0.28, 221.41 9.06, 223 32 M223 32 C224.77 88.32, 223.19 143.27, 223 171 M223 32 C222.73 67.21, 221.84 104.88, 223 171 M223 171 C223.31 192.87, 214.13 203.06, 191 203 M223 171 C223.02 190.18, 210.43 204.83, 191 203 M191 203 C150.68 202.58, 106.07 203.26, 32 203 M191 203 C153.95 201.16, 116.53 200.97, 32 203 M32 203 C10.82 202.09, -0.97 192.25, 0 171 M32 203 C10.59 202.23, -0.65 193.23, 0 171 M0 171 C1.08 138.46, 0.1 105.9, 0 32 M0 171 C-0.51 142.08, -0.98 112.88, 0 32 M0 32 C-1.17 10.8, 9.15 -0.92, 32 0 M0 32 C-1.91 12.61, 9.87 -1.28, 32 0" stroke="#000000" stroke-width="1" fill="none"></path></g><g stroke-linecap="round" transform="translate(56 84) rotate(0 29.5 19.5)"><path d="M9.09 -1.14 L49.02 -0.92 L56.75 3.87 L59.97 11.12 L59.42 31.11 L55.35 35.91 L47.72 40.59 L9.85 40.52 L1.12 35.73 L-0.26 28.71 L-0.02 3.66 L5.96 0.38 L10.52 -0.73" stroke="none" stroke-width="0" fill="#fab005"></path><path d="M9.75 0 M9.75 0 C23.76 -0.23, 38.75 0.09, 49.25 0 M9.75 0 C21.24 0.96, 31.88 0.4, 49.25 0 M49.25 0 C57.66 -1.15, 60.03 2.47, 59 9.75 M49.25 0 C53.65 1.62, 57.77 3.73, 59 9.75 M59 9.75 C59.13 17.7, 58.67 24.99, 59 29.25 M59 9.75 C60.03 16.26, 58.57 24.8, 59 29.25 M59 29.25 C59.02 36.45, 54.33 40.02, 49.25 39 M59 29.25 C60.75 36.03, 57.34 39.26, 49.25 39 M49.25 39 C36.79 37.51, 23.79 39.16, 9.75 39 M49.25 39 C38.89 39.9, 27.64 39.78, 9.75 39 M9.75 39 C2.32 38.32, 0.47 35.51, 0 29.25 M9.75 39 C4.12 41.27, -1.67 37.53, 0 29.25 M0 29.25 C0.59 22.5, -1.58 19.25, 0 9.75 M0 29.25 C0.23 22.1, -0.05 14.72, 0 9.75 M0 9.75 C0.42 4.4, 4.84 -0.37, 9.75 0 M0 9.75 C-1.5 3.46, 2.72 -1.17, 9.75 0" stroke="#000000" stroke-width="1" fill="none"></path></g><g transform="translate(66.75 93.89999999999998) rotate(0 18.75 9.599999999999994)"><text x="18.75" y="0" font-family="Cascadia, Segoe UI Emoji" font-size="16px" fill="#000000" text-anchor="middle" style="white-space: pre;" direction="ltr" dominant-baseline="text-before-edge">key1</text></g><g stroke-linecap="round" transform="translate(55.5 142.5) rotate(0 29.5 19.5)"><path d="M10.02 0.06 L49.5 -0.31 L56.56 3.94 L59.85 10.11 L57.7 27.37 L58.46 36.33 L50.35 40.53 L8.91 38.01 L3.42 35.88 L-0.56 30.41 L1.8 4.49 L6.09 -0.2 L11.36 0.04" stroke="none" stroke-width="0" fill="#fab005"></path><path d="M9.75 0 M9.75 0 C22.62 0.57, 32.37 0.23, 49.25 0 M9.75 0 C20.57 0.53, 31.56 0.92, 49.25 0 M49.25 0 C56.63 0.58, 58.77 4.9, 59 9.75 M49.25 0 C53.69 2.29, 60.3 3.42, 59 9.75 M59 9.75 C58.71 15.24, 57.18 25.87, 59 29.25 M59 9.75 C59.21 17.15, 60 23.42, 59 29.25 M59 29.25 C58.24 34.74, 56.95 38.87, 49.25 39 M59 29.25 C61.04 34.45, 57.75 41.13, 49.25 39 M49.25 39 C42.02 38.32, 32.55 37.48, 9.75 39 M49.25 39 C40.43 39.55, 31.82 37.67, 9.75 39 M9.75 39 C1.29 38.13, -0.11 36.96, 0 29.25 M9.75 39 C3.49 39.61, -1.74 37.37, 0 29.25 M0 29.25 C-1.47 22.97, 1.1 17.14, 0 9.75 M0 29.25 C-0.16 25.31, 0.23 19.79, 0 9.75 M0 9.75 C-0.08 2.41, 4.51 -1.24, 9.75 0 M0 9.75 C1.52 4.82, 4.63 1.02, 9.75 0" stroke="#000000" stroke-width="1" fill="none"></path></g><g transform="translate(66.25 152.39999999999998) rotate(0 18.75 9.599999999999994)"><text x="18.75" y="0" font-family="Cascadia, Segoe UI Emoji" font-size="16px" fill="#000000" text-anchor="middle" style="white-space: pre;" direction="ltr" dominant-baseline="text-before-edge">key2</text></g><g stroke-linecap="round" transform="translate(56.5 200.5) rotate(0 29.5 19.5)"><path d="M10.11 -1.3 L47.37 1.9 L56.33 3.54 L60.53 8.91 L58.01 30.23 L55.88 36 L50.41 40.19 L8.75 39.6 L1.62 38.18 L0.04 28.85 L0.63 4.72 L7.3 1.03 L10.26 0.08" stroke="none" stroke-width="0" fill="#fab005"></path><path d="M9.75 0 M9.75 0 C20.19 0.96, 30.98 1.73, 49.25 0 M9.75 0 C24.17 -0.85, 37.94 0.61, 49.25 0 M49.25 0 C55.9 1.51, 59.16 1.51, 59 9.75 M49.25 0 C55.39 -2.16, 56.83 5, 59 9.75 M59 9.75 C59.38 17.98, 60.96 23.96, 59 29.25 M59 9.75 C58.84 15.73, 58.35 20.82, 59 29.25 M59 29.25 C60.85 34.3, 57.32 39.24, 49.25 39 M59 29.25 C61.03 34.92, 57.22 37.19, 49.25 39 M49.25 39 C39.97 40.48, 31.12 36.71, 9.75 39 M49.25 39 C41.88 39.08, 33.57 38.22, 9.75 39 M9.75 39 C4.66 38.55, 0.43 35.15, 0 29.25 M9.75 39 C1.57 37.97, 1.34 34.23, 0 29.25 M0 29.25 C-0.42 25.66, 0.37 18.89, 0 9.75 M0 29.25 C-0.52 24.12, 0.75 18.29, 0 9.75 M0 9.75 C0.88 3.21, 4.1 0.44, 9.75 0 M0 9.75 C-1.66 2.34, 4.55 0.44, 9.75 0" stroke="#000000" stroke-width="1" fill="none"></path></g><g transform="translate(67.25 210.39999999999998) rotate(0 18.75 9.600000000000023)"><text x="18.75" y="0" font-family="Cascadia, Segoe UI Emoji" font-size="16px" fill="#000000" text-anchor="middle" style="white-space: pre;" direction="ltr" dominant-baseline="text-before-edge">key3</text></g><g stroke-linecap="round" transform="translate(144 86) rotate(0 56.5 16.5)"><path d="M8.07 1.82 L109.44 1.49 L112.2 6.16 L111.19 26.97 L109.66 32.21 L104.76 33.51 L4.9 33.97 L0.99 27.93 L-1.16 8.78 L2.68 2.68 L8.26 -1.3" stroke="none" stroke-width="0" fill="#fa5252"></path><path d="M8.25 0 M8.25 0 C25.99 -0.8, 46.91 -0.48, 104.75 0 M8.25 0 C34.17 0.48, 60.33 -0.01, 104.75 0 M104.75 0 C111.37 0.41, 114.56 3, 113 8.25 M104.75 0 C112.44 -1.73, 111.23 1.73, 113 8.25 M113 8.25 C112.86 11.78, 113.94 17.04, 113 24.75 M113 8.25 C113.58 13.1, 113.55 16.6, 113 24.75 M113 24.75 C114.12 32.18, 110.19 32.18, 104.75 33 M113 24.75 C113.78 32.15, 110.98 34.75, 104.75 33 M104.75 33 C71.88 34.66, 33.94 33.79, 8.25 33 M104.75 33 C70.49 32.29, 36.12 32.1, 8.25 33 M8.25 33 C1.36 34.67, -0.88 31.8, 0 24.75 M8.25 33 C3.59 32.27, 0.7 28.66, 0 24.75 M0 24.75 C1.44 18.34, -0.3 14.79, 0 8.25 M0 24.75 C-0.54 21.25, 0.27 17.12, 0 8.25 M0 8.25 C0.24 3.99, 3.39 1.76, 8.25 0 M0 8.25 C-2.16 4.14, 3.39 1.79, 8.25 0" stroke="#000000" stroke-width="1" fill="none"></path></g><g transform="translate(181.75 92.89999999999998) rotate(0 18.75 9.599999999999994)"><text x="18.75" y="0" font-family="Cascadia, Segoe UI Emoji" font-size="16px" fill="#000000" text-anchor="middle" style="white-space: pre;" direction="ltr" dominant-baseline="text-before-edge">[u8]</text></g><g stroke-linecap="round" transform="translate(143 148) rotate(0 57.5 15)"><path d="M7.16 -0.28 L110.08 0.88 L113.54 4.91 L114.54 27.63 L112.16 29.25 L107.91 31.56 L4.47 31.44 L-1.04 24.24 L-0.89 6.47 L0.05 2.37 L7.51 -0.69" stroke="none" stroke-width="0" fill="#fa5252"></path><path d="M7.5 0 M7.5 0 C45.09 0.08, 81.9 1.55, 107.5 0 M7.5 0 C44.15 -0.59, 78.46 -0.22, 107.5 0 M107.5 0 C114.15 0.64, 116.52 3.66, 115 7.5 M107.5 0 C113 1.78, 116.94 3.54, 115 7.5 M115 7.5 C114.5 10.1, 115.43 13.46, 115 22.5 M115 7.5 C115.55 12.33, 115.5 18.11, 115 22.5 M115 22.5 C114.36 28.11, 111.12 30.57, 107.5 30 M115 22.5 C116.94 28.67, 114.71 28.61, 107.5 30 M107.5 30 C77.64 28.38, 47.97 31.22, 7.5 30 M107.5 30 C75.68 30.44, 43.51 29.18, 7.5 30 M7.5 30 C3.71 30.56, 1.56 28.64, 0 22.5 M7.5 30 C3.64 30.27, -2.21 26.71, 0 22.5 M0 22.5 C-0.1 18.98, -1.26 12.48, 0 7.5 M0 22.5 C0.62 19.46, -0.09 15.54, 0 7.5 M0 7.5 C0.47 3.93, 1.77 1.44, 7.5 0 M0 7.5 C1.54 1.41, 4.33 -0.93, 7.5 0" stroke="#000000" stroke-width="1" fill="none"></path></g><g transform="translate(181.75 153.39999999999998) rotate(0 18.75 9.599999999999994)"><text x="18.75" y="0" font-family="Cascadia, Segoe UI Emoji" font-size="16px" fill="#000000" text-anchor="middle" style="white-space: pre;" direction="ltr" dominant-baseline="text-before-edge">[u8]</text></g><g stroke-linecap="round" transform="translate(323.5 186.5) rotate(0 111.5 101.5)"><path d="M31.67 -0.31 L191.64 -1.07 L206.84 0.24 L214.97 6.41 L221.33 19 L224 30.29 L223.89 170.12 L220.93 183.76 L214.17 195.82 L205.9 200.07 L191.79 202.38 L31.99 204.53 L19.29 202.14 L9.22 194.51 L0.17 186.51 L0.54 172.46 L-0.65 25.46 L3.85 16.86 L8.68 9.02 L18.97 0.28 L30.97 0.28" stroke="none" stroke-width="0" fill="#40c057"></path><path d="M32 0 M32 0 C91.39 0.49, 154.73 0.62, 191 0 M32 0 C79.62 -0.62, 129.64 -0.88, 191 0 M191 0 C210.76 -1.65, 224.41 12.41, 223 32 M191 0 C212.64 1.94, 223.37 9.03, 223 32 M223 32 C222.8 66.55, 223.28 100, 223 171 M223 32 C223.26 75.96, 223.1 120.98, 223 171 M223 171 C224.6 193.21, 213.99 201.95, 191 203 M223 171 C222.44 191.72, 213.16 203.47, 191 203 M191 203 C139.91 201.16, 92.64 202.95, 32 203 M191 203 C149.31 203.56, 107.84 204.87, 32 203 M32 203 C9.72 202.48, -0.24 192.67, 0 171 M32 203 C8.5 204.78, -1.16 194.16, 0 171 M0 171 C-2.36 143.59, -0.08 113.88, 0 32 M0 171 C-0.02 126.45, -0.1 82.97, 0 32 M0 32 C-1.49 10.22, 10.92 1.81, 32 0 M0 32 C-0.26 8.37, 11.12 2.23, 32 0" stroke="#000000" stroke-width="1" fill="none"></path></g><g stroke-linecap="round" transform="translate(337.5 206.5) rotate(0 29.5 19.5)"><path d="M9.44 0.64 L48.18 1.84 L54.8 2.41 L57.41 10.08 L60 30.25 L54.85 37.45 L48.37 38.93 L8.51 38.17 L3.25 37.46 L-0.93 30.04 L-0.01 5.47 L7.01 1.9 L10.89 1.22" stroke="none" stroke-width="0" fill="#fab005"></path><path d="M9.75 0 M9.75 0 C21.18 1.16, 30.37 0.67, 49.25 0 M9.75 0 C25.77 0.35, 39.91 -0.65, 49.25 0 M49.25 0 C56.03 1.67, 60.35 2.2, 59 9.75 M49.25 0 C53.9 -0.4, 59.86 3, 59 9.75 M59 9.75 C57.49 14.82, 60.79 20.24, 59 29.25 M59 9.75 C59.69 14.2, 59.66 18.54, 59 29.25 M59 29.25 C57.58 34.78, 53.85 37.1, 49.25 39 M59 29.25 C60.29 35.27, 57.59 36.78, 49.25 39 M49.25 39 C36.06 37.48, 23.06 38.2, 9.75 39 M49.25 39 C33.71 39.08, 18.95 39.69, 9.75 39 M9.75 39 C3.66 39.31, 1.69 34.69, 0 29.25 M9.75 39 C2.16 37.86, 2.21 36.66, 0 29.25 M0 29.25 C0.83 22.72, 1.96 20.12, 0 9.75 M0 29.25 C0.21 23.4, 0.81 18.91, 0 9.75 M0 9.75 C1.59 1.38, 4.72 -1.73, 9.75 0 M0 9.75 C-1.55 4.71, 4.33 0.27, 9.75 0" stroke="#000000" stroke-width="1" fill="none"></path></g><g transform="translate(348.25 216.39999999999998) rotate(0 18.75 9.600000000000023)"><text x="18.75" y="0" font-family="Cascadia, Segoe UI Emoji" font-size="16px" fill="#000000" text-anchor="middle" style="white-space: pre;" direction="ltr" dominant-baseline="text-before-edge">key1</text></g><g stroke-linecap="round" transform="translate(337 265) rotate(0 29.5 19.5)"><path d="M8.68 1.84 L47.49 -0.03 L54.97 2.77 L60 10.75 L57.29 30.14 L55.68 36.49 L48.01 38.17 L10.57 39.9 L1.51 37.35 L-0.62 29.24 L2.14 6.78 L6.62 1.83 L9.26 -1.83" stroke="none" stroke-width="0" fill="#fab005"></path><path d="M9.75 0 M9.75 0 C23.44 0.68, 41.28 -1.43, 49.25 0 M9.75 0 C22.09 -0.71, 36.29 0.64, 49.25 0 M49.25 0 C57.1 -1.05, 57.39 2.91, 59 9.75 M49.25 0 C56.61 -0.25, 59.09 1.6, 59 9.75 M59 9.75 C60.79 14.46, 57.33 20.29, 59 29.25 M59 9.75 C59.99 17.13, 58.48 23.73, 59 29.25 M59 29.25 C57.1 33.85, 56.87 38.59, 49.25 39 M59 29.25 C60.84 33.53, 56.24 39.84, 49.25 39 M49.25 39 C37.98 38.07, 29.92 39.61, 9.75 39 M49.25 39 C33.87 39.26, 19.23 39.06, 9.75 39 M9.75 39 C4.94 37.94, -0.95 34.76, 0 29.25 M9.75 39 C5.46 39.91, -0.82 34.1, 0 29.25 M0 29.25 C1.75 23.03, -0.99 13.93, 0 9.75 M0 29.25 C0.72 23.14, 0.74 17.11, 0 9.75 M0 9.75 C1.47 1.52, 1.9 1.27, 9.75 0 M0 9.75 C1.08 3.52, 3.58 -0.4, 9.75 0" stroke="#000000" stroke-width="1" fill="none"></path></g><g transform="translate(347.75 274.9) rotate(0 18.75 9.600000000000023)"><text x="18.75" y="0" font-family="Cascadia, Segoe UI Emoji" font-size="16px" fill="#000000" text-anchor="middle" style="white-space: pre;" direction="ltr" dominant-baseline="text-before-edge">key2</text></g><g stroke-linecap="round" transform="translate(338 323) rotate(0 29.5 19.5)"><path d="M7.99 -0.03 L47.66 0.33 L57.56 3.43 L57.29 10.64 L58.12 29.18 L55.32 35.73 L50.07 39.9 L8.82 39.79 L1.81 36.55 L1.53 30.54 L1.75 6.71 L5 -1.22 L11.26 0.54" stroke="none" stroke-width="0" fill="#fab005"></path><path d="M9.75 0 M9.75 0 C26.33 -1.33, 39.88 0.83, 49.25 0 M9.75 0 C23.66 1.04, 37.97 -0.32, 49.25 0 M49.25 0 C54.14 -0.34, 59.75 3.03, 59 9.75 M49.25 0 C55.84 -1.65, 59.26 1.64, 59 9.75 M59 9.75 C57.66 13.13, 60.57 21.43, 59 29.25 M59 9.75 C58.47 15.39, 58.24 21.04, 59 29.25 M59 29.25 C60.12 35.34, 57.35 37.07, 49.25 39 M59 29.25 C59.49 36.59, 54.94 38.43, 49.25 39 M49.25 39 C41.73 39.75, 32.67 37.82, 9.75 39 M49.25 39 C38.57 39.3, 28.33 38.61, 9.75 39 M9.75 39 C2.3 38.01, 1.92 36.54, 0 29.25 M9.75 39 C2.43 37.35, 1.83 36.57, 0 29.25 M0 29.25 C-1.11 24.27, -0.42 20.63, 0 9.75 M0 29.25 C0.62 24.33, 0.56 20.39, 0 9.75 M0 9.75 C-1.35 4.52, 4.19 0.24, 9.75 0 M0 9.75 C0.33 2.85, 1.81 -0.6, 9.75 0" stroke="#000000" stroke-width="1" fill="none"></path></g><g transform="translate(348.75 332.9) rotate(0 18.75 9.600000000000023)"><text x="18.75" y="0" font-family="Cascadia, Segoe UI Emoji" font-size="16px" fill="#000000" text-anchor="middle" style="white-space: pre;" direction="ltr" dominant-baseline="text-before-edge">key3</text></g><g stroke-linecap="round" transform="translate(425.5 208.5) rotate(0 56.5 16.5)"><path d="M6.66 0.33 L109.36 1.51 L110.77 5.53 L111.6 28.29 L109.7 30.1 L105.57 33.9 L3.71 33.27 L-0.11 28.35 L1.53 9.54 L3.2 3.28 L7.76 -1.83" stroke="none" stroke-width="0" fill="#fa5252"></path><path d="M8.25 0 M8.25 0 C43.36 0.26, 82.61 -1.84, 104.75 0 M8.25 0 C39.64 -0.98, 72.88 0.37, 104.75 0 M104.75 0 C111.6 -1.05, 111.39 2.41, 113 8.25 M104.75 0 C111.11 -0.25, 113.09 1.1, 113 8.25 M113 8.25 C114.52 12.24, 111.59 17.17, 113 24.75 M113 8.25 C113.84 14.5, 112.56 20.08, 113 24.75 M113 24.75 C111.1 28.35, 111.37 32.59, 104.75 33 M113 24.75 C114.84 28.03, 110.74 33.84, 104.75 33 M104.75 33 C78.38 31.68, 55.22 33.21, 8.25 33 M104.75 33 C67.56 33.12, 31.11 32.92, 8.25 33 M8.25 33 C4.44 31.94, -0.95 29.26, 0 24.75 M8.25 33 C4.96 33.91, -0.82 28.6, 0 24.75 M0 24.75 C1.48 19.48, -0.84 11.79, 0 8.25 M0 24.75 C0.61 19.58, 0.63 14.48, 0 8.25 M0 8.25 C1.47 1.02, 1.4 1.27, 8.25 0 M0 8.25 C1.08 3.02, 3.08 -0.4, 8.25 0" stroke="#000000" stroke-width="1" fill="none"></path></g><g transform="translate(463.25 215.39999999999998) rotate(0 18.75 9.600000000000023)"><text x="18.75" y="0" font-family="Cascadia, Segoe UI Emoji" font-size="16px" fill="#000000" text-anchor="middle" style="white-space: pre;" direction="ltr" dominant-baseline="text-before-edge">[u8]</text></g><g stroke-linecap="round" transform="translate(424.5 270.5) rotate(0 57.5 15)"><path d="M8.5 1 L109.07 1.35 L113.65 4.14 L113.29 24.95 L113.94 29.02 L106.57 30.79 L3.59 29.52 L2 27.07 L1.14 8.72 L1.39 0.05 L9.01 0.54" stroke="none" stroke-width="0" fill="#e64980"></path><path d="M7.5 0 M7.5 0 C46.63 -1.62, 82.74 0.54, 107.5 0 M7.5 0 C42.5 1.35, 77.9 -0.01, 107.5 0 M107.5 0 C110.89 -0.34, 115.75 2.28, 115 7.5 M107.5 0 C112.59 -1.65, 115.26 0.89, 115 7.5 M115 7.5 C113.97 10.1, 116.21 16.48, 115 22.5 M115 7.5 C114.59 11.84, 114.41 16.18, 115 22.5 M115 22.5 C116.12 27.09, 114.1 28.07, 107.5 30 M115 22.5 C115.49 28.34, 111.69 29.43, 107.5 30 M107.5 30 C86.02 30.55, 62.99 28.62, 7.5 30 M107.5 30 C80.15 30.51, 53.23 29.83, 7.5 30 M7.5 30 C1.55 29.01, 1.92 28.29, 0 22.5 M7.5 30 C1.68 28.35, 1.83 28.32, 0 22.5 M0 22.5 C-0.85 18.67, -0.32 15.87, 0 7.5 M0 22.5 C0.48 18.71, 0.43 15.68, 0 7.5 M0 7.5 C-1.35 3.77, 3.44 0.24, 7.5 0 M0 7.5 C0.33 2.1, 1.06 -0.6, 7.5 0" stroke="#000000" stroke-width="1" fill="none"></path></g><g transform="translate(463.25 275.9) rotate(0 18.75 9.600000000000023)"><text x="18.75" y="0" font-family="Cascadia, Segoe UI Emoji" font-size="16px" fill="#000000" text-anchor="middle" style="white-space: pre;" direction="ltr" dominant-baseline="text-before-edge">[u8]</text></g><g stroke-linecap="round" transform="translate(38.5 350.5) rotate(0 111.5 101.5)"><path d="M31.51 -1.83 L192.51 0.54 L206.46 0.85 L215.96 9.85 L219.86 18.68 L224.02 32.97 L221.28 169.97 L221.28 186.67 L216.35 193.95 L203.39 200.66 L191.75 202.78 L32.08 201.56 L18.23 199.6 L7.12 196.98 L0.6 183.43 L-1.65 172.41 L2.24 24.77 L3.69 18.32 L6.58 7.03 L16.1 0.1 L33.12 -0.41" stroke="none" stroke-width="0" fill="#40c057"></path><path d="M32 0 M32 0 C93.16 -1.04, 152.36 -1.72, 191 0 M32 0 C73.73 -0.45, 114.05 -1.52, 191 0 M191 0 C211.8 0.72, 223.41 10.97, 223 32 M191 0 C214.28 -1.22, 221.91 9.52, 223 32 M223 32 C222.12 88.64, 224.26 140.68, 223 171 M223 32 C223.58 86.58, 224.01 140.46, 223 171 M223 171 C224.55 191.32, 213.92 201.13, 191 203 M223 171 C224.69 190.34, 210.79 204.46, 191 203 M191 203 C135.5 201.97, 80.18 201.52, 32 203 M191 203 C148.5 201.94, 107.34 201.7, 32 203 M32 203 C8.67 203.39, 1.94 194.01, 0 171 M32 203 C9.09 202.51, -2.13 190.65, 0 171 M0 171 C0.89 120.56, 0.51 66.85, 0 32 M0 171 C-0.33 142.78, -2 113.26, 0 32 M0 32 C1.63 10.66, 10.58 0.07, 32 0 M0 32 C1.04 11.14, 8.53 -0.97, 32 0" stroke="#000000" stroke-width="1" fill="none"></path></g><g stroke-linecap="round" transform="translate(52.5 370.5) rotate(0 29.5 19.5)"><path d="M7.92 1.51 L49.79 1.46 L55.41 3.4 L60.85 8.61 L59.68 30.27 L57.53 34.84 L48.22 39.28 L11.42 40.35 L1.38 34.96 L-0.34 30 L0.39 5.56 L4.05 0.84 L8.35 -0.88" stroke="none" stroke-width="0" fill="#fab005"></path><path d="M9.75 0 M9.75 0 C23.86 1.72, 43 0.58, 49.25 0 M9.75 0 C24.45 -0.67, 39.17 0.84, 49.25 0 M49.25 0 C55.34 1.6, 57.07 3.68, 59 9.75 M49.25 0 C56.59 -0.81, 58.43 1.66, 59 9.75 M59 9.75 C59.8 16.42, 57.91 19.4, 59 29.25 M59 9.75 C59.22 15.91, 58.55 19.95, 59 29.25 M59 29.25 C58.01 37.67, 56.54 38.29, 49.25 39 M59 29.25 C57.35 37.58, 56.57 37.38, 49.25 39 M49.25 39 C33.18 38.57, 18.49 36.92, 9.75 39 M49.25 39 C33.4 40.05, 18.55 38.64, 9.75 39 M9.75 39 C4.52 39.94, 0.24 36.04, 0 29.25 M9.75 39 C2.85 37.56, -0.6 33.79, 0 29.25 M0 29.25 C-0.31 24.32, 1.89 18.66, 0 9.75 M0 29.25 C0.78 24.68, -0.24 20.55, 0 9.75 M0 9.75 C-1.46 4.76, 2.87 -1.46, 9.75 0 M0 9.75 C0.72 5.28, 3.53 0.3, 9.75 0" stroke="#000000" stroke-width="1" fill="none"></path></g><g transform="translate(63.25 380.4) rotate(0 18.75 9.600000000000023)"><text x="18.75" y="0" font-family="Cascadia, Segoe UI Emoji" font-size="16px" fill="#000000" text-anchor="middle" style="white-space: pre;" direction="ltr" dominant-baseline="text-before-edge">key1</text></g><g stroke-linecap="round" transform="translate(52 429) rotate(0 29.5 19.5)"><path d="M10.29 1.46 L48.1 0.96 L58.41 1.3 L59.68 10.77 L59.97 27.53 L55.53 36.84 L50.92 40.35 L8.7 37.39 L2.09 37.31 L-0.22 29.33 L-0.83 5.71 L4.08 -0.27 L11.73 -1.4" stroke="none" stroke-width="0" fill="#fab005"></path><path d="M9.75 0 M9.75 0 C20.23 -0.01, 28.93 0.04, 49.25 0 M9.75 0 C17.84 0.94, 27.63 1.18, 49.25 0 M49.25 0 C53.82 0.43, 59.73 2.55, 59 9.75 M49.25 0 C55.18 -1.59, 58.07 2.49, 59 9.75 M59 9.75 C58.06 16.69, 58.57 25.27, 59 29.25 M59 9.75 C58.51 15.54, 58.55 23.18, 59 29.25 M59 29.25 C59.79 35.04, 54.31 40.59, 49.25 39 M59 29.25 C59.82 34.13, 57.9 40.39, 49.25 39 M49.25 39 C39.61 37.06, 30.85 37.94, 9.75 39 M49.25 39 C33.4 38.62, 19.92 39.76, 9.75 39 M9.75 39 C3.49 39.29, -0.35 34.5, 0 29.25 M9.75 39 C2.65 37.04, -0.78 34.3, 0 29.25 M0 29.25 C1.81 24.64, -1.91 20.84, 0 9.75 M0 29.25 C-0.37 20.61, -0.88 14.5, 0 9.75 M0 9.75 C-0.38 1.79, 3.88 1.76, 9.75 0 M0 9.75 C0.28 3.55, 1.12 1.81, 9.75 0" stroke="#000000" stroke-width="1" fill="none"></path></g><g transform="translate(62.75 438.9) rotate(0 18.75 9.600000000000023)"><text x="18.75" y="0" font-family="Cascadia, Segoe UI Emoji" font-size="16px" fill="#000000" text-anchor="middle" style="white-space: pre;" direction="ltr" dominant-baseline="text-before-edge">key2</text></g><g stroke-linecap="round" transform="translate(53 487) rotate(0 29.5 19.5)"><path d="M8.6 0.96 L51.1 -1.14 L57.25 3.46 L59.97 8.03 L57.97 29.53 L58.23 37.91 L48.2 37.39 L9.41 39.75 L2.22 36.64 L-1.44 29.48 L-0.79 4.6 L7.46 -0.79 L8.18 -1.65" stroke="none" stroke-width="0" fill="#fab005"></path><path d="M9.75 0 M9.75 0 C26.08 0.27, 37.6 -1.02, 49.25 0 M9.75 0 C17.63 0.58, 24.96 -0.01, 49.25 0 M49.25 0 C56.48 -0.7, 58.5 1.87, 59 9.75 M49.25 0 C54.82 -0.76, 60.84 4.26, 59 9.75 M59 9.75 C58.38 17.91, 59.3 24.97, 59 29.25 M59 9.75 C58.41 18.18, 59.28 24.4, 59 29.25 M59 29.25 C57.56 37.34, 56.46 37.59, 49.25 39 M59 29.25 C61.15 37.14, 54.66 38.4, 49.25 39 M49.25 39 C39.43 37.61, 28.1 36.75, 9.75 39 M49.25 39 C35.14 39.2, 19.88 38.88, 9.75 39 M9.75 39 C2.9 37.75, -0.52 34.05, 0 29.25 M9.75 39 C2.47 37.55, -1.72 35.24, 0 29.25 M0 29.25 C-2.13 23.53, 1.71 18.68, 0 9.75 M0 29.25 C-0.67 25.47, -0.14 19.51, 0 9.75 M0 9.75 C0.63 5.01, 3.5 0.26, 9.75 0 M0 9.75 C-2.13 5.06, 2.26 1.76, 9.75 0" stroke="#000000" stroke-width="1" fill="none"></path></g><g transform="translate(63.75 496.9) rotate(0 18.75 9.600000000000023)"><text x="18.75" y="0" font-family="Cascadia, Segoe UI Emoji" font-size="16px" fill="#000000" text-anchor="middle" style="white-space: pre;" direction="ltr" dominant-baseline="text-before-edge">key3</text></g><g stroke-linecap="round" transform="translate(140.5 372.5) rotate(0 56.5 16.5)"><path d="M10.1 -1.14 L109.04 1.54 L113.46 2.92 L111.45 28.64 L112.61 32.29 L103.7 31.39 L4.3 33.23 L0.3 28.44 L-1.44 8.48 L0.66 1.18 L10.23 -1.4" stroke="none" stroke-width="0" fill="#fa5252"></path><path d="M8.25 0 M8.25 0 C31.35 -0.42, 52.67 -0.36, 104.75 0 M8.25 0 C29.39 1.48, 52.23 1.72, 104.75 0 M104.75 0 C108.32 0.43, 113.73 2.05, 113 8.25 M104.75 0 C109.68 -1.59, 112.07 1.99, 113 8.25 M113 8.25 C112.21 14.12, 112.63 21.39, 113 24.75 M113 8.25 C112.59 13.15, 112.62 19.62, 113 24.75 M113 24.75 C113.79 29.54, 108.81 34.59, 104.75 33 M113 24.75 C113.82 28.63, 112.4 34.39, 104.75 33 M104.75 33 C80.71 30.99, 57.55 31.87, 8.25 33 M104.75 33 C67.28 33.03, 32.17 34.18, 8.25 33 M8.25 33 C2.99 33.29, -0.35 29, 0 24.75 M8.25 33 C2.15 31.04, -0.78 28.8, 0 24.75 M0 24.75 C1.53 20.85, -1.61 17.64, 0 8.25 M0 24.75 C-0.31 17.44, -0.74 12.27, 0 8.25 M0 8.25 C-0.38 1.29, 3.38 1.76, 8.25 0 M0 8.25 C0.28 3.05, 0.62 1.81, 8.25 0" stroke="#000000" stroke-width="1" fill="none"></path></g><g transform="translate(178.25 379.4) rotate(0 18.75 9.600000000000023)"><text x="18.75" y="0" font-family="Cascadia, Segoe UI Emoji" font-size="16px" fill="#000000" text-anchor="middle" style="white-space: pre;" direction="ltr" dominant-baseline="text-before-edge">[u8]</text></g><g stroke-linecap="round" transform="translate(139.5 434.5) rotate(0 57.5 15)"><path d="M8.18 1.02 L111.75 -1.25 L113.5 4.5 L116.2 27.13 L112.07 26.52 L107.16 30.75 L4 29.61 L-0.97 26.01 L-1.4 6.62 L3.85 0.48 L5.93 -1.65" stroke="none" stroke-width="0" fill="#fa5252"></path><path d="M7.5 0 M7.5 0 C46.25 0.19, 80.19 -1.1, 107.5 0 M7.5 0 C27.77 0.24, 47.49 -0.35, 107.5 0 M107.5 0 C113.23 -0.7, 114.5 1.12, 115 7.5 M107.5 0 C111.57 -0.76, 116.84 3.51, 115 7.5 M115 7.5 C114.52 13.78, 115.23 19.21, 115 22.5 M115 7.5 C114.55 13.99, 115.22 18.77, 115 22.5 M115 22.5 C113.56 29.09, 113.21 28.59, 107.5 30 M115 22.5 C117.15 28.89, 111.41 29.4, 107.5 30 M107.5 30 C80.27 28.04, 51.52 27.18, 7.5 30 M107.5 30 C70.81 29.8, 32.96 29.47, 7.5 30 M7.5 30 C2.15 28.75, -0.52 25.8, 0 22.5 M7.5 30 C1.72 28.55, -1.72 26.99, 0 22.5 M0 22.5 C-1.64 18.1, 1.32 14.37, 0 7.5 M0 22.5 C-0.52 19.59, -0.11 15, 0 7.5 M0 7.5 C0.63 4.26, 2.75 0.26, 7.5 0 M0 7.5 C-2.13 4.31, 1.51 1.76, 7.5 0" stroke="#000000" stroke-width="1" fill="none"></path></g><g transform="translate(178.25 439.9) rotate(0 18.75 9.600000000000023)"><text x="18.75" y="0" font-family="Cascadia, Segoe UI Emoji" font-size="16px" fill="#000000" text-anchor="middle" style="white-space: pre;" direction="ltr" dominant-baseline="text-before-edge">[u8]</text></g><g stroke-linecap="round"><g transform="translate(117 220) rotate(0 96.54555498985104 -0.026891300763793424)"><path d="M0.89 -1.09 C33.04 -1.11, 161.23 -0.49, 193.19 -0.44 M-0.1 0.95 C31.89 1.13, 160.37 1.01, 192.35 0.87" stroke="#000000" stroke-width="1" fill="none"></path></g><g transform="translate(117 220) rotate(0 96.54555498985104 -0.026891300763793424)"><path d="M162.36 11.52 C172.55 7.13, 181.01 4.39, 191.49 2.8 M163.97 11.36 C173.82 7.43, 181.03 4.85, 191.53 0.36" stroke="#000000" stroke-width="1" fill="none"></path></g><g transform="translate(117 220) rotate(0 96.54555498985104 -0.026891300763793424)"><path d="M162.32 -9 C172.46 -6.78, 180.94 -2.92, 191.49 2.8 M163.92 -9.16 C173.77 -6.78, 181 -3.04, 191.53 0.36" stroke="#000000" stroke-width="1" fill="none"></path></g></g><mask></mask><g stroke-linecap="round" transform="translate(47 23) rotate(0 32 14.599999999999994)"><path d="M6.66 1.3 L58.27 1.53 L63.77 3.99 L62.66 26.9 L62.82 26.43 L56.46 29.27 L2.71 30.41 L0.81 26.27 L-0.83 7.83 L3.81 0.23 L5.76 -1.64" stroke="none" stroke-width="0" fill="#fab005"></path><path d="M7.3 0 M7.3 0 C19.02 -1.88, 33.01 1.13, 56.7 0 M7.3 0 C21.09 -0.56, 35.92 0.19, 56.7 0 M56.7 0 C62.18 -1.98, 62.29 0.71, 64 7.3 M56.7 0 C59.97 -0.47, 64.67 1.65, 64 7.3 M64 7.3 C63.79 11.63, 63.55 15.23, 64 21.9 M64 7.3 C64.6 11.89, 63.83 15.62, 64 21.9 M64 21.9 C63.35 25.94, 60.14 28.84, 56.7 29.2 M64 21.9 C64.43 26.11, 61.53 30.23, 56.7 29.2 M56.7 29.2 C46.87 29.71, 34.59 29.29, 7.3 29.2 M56.7 29.2 C42.34 29.28, 26.99 29.9, 7.3 29.2 M7.3 29.2 C1.6 29.33, -1.11 28.26, 0 21.9 M7.3 29.2 C0.16 27.62, -1.28 29.02, 0 21.9 M0 21.9 C-0.9 18.18, -0.67 15.18, 0 7.3 M0 21.9 C-0.14 18.13, -0.2 14.19, 0 7.3 M0 7.3 C0.92 1.07, 2.67 1.16, 7.3 0 M0 7.3 C0.36 2.92, 4.14 -2.23, 7.3 0" stroke="#000000" stroke-width="1" fill="none"></path></g><g transform="translate(60.25 28) rotate(0 18.75 9.599999999999994)"><text x="18.75" y="0" font-family="Cascadia, Segoe UI Emoji" font-size="16px" fill="#000000" text-anchor="middle" style="white-space: pre;" direction="ltr" dominant-baseline="text-before-edge">key1</text></g><g stroke-linecap="round" transform="translate(46 312) rotate(0 35.5 14.600000000000023)"><path d="M6.73 -0.03 L67.79 -1.12 L68.67 4.57 L71.63 25.49 L68.9 27.35 L63.82 27.47 L4.71 30.27 L0.33 26.16 L1.11 6.47 L1.95 0.72 L8.79 -1.98" stroke="none" stroke-width="0" fill="#fab005"></path><path d="M7.3 0 M7.3 0 C18.62 -1.51, 34.68 -1.89, 63.7 0 M7.3 0 C21.75 -0.29, 35.53 -0.1, 63.7 0 M63.7 0 C69.58 -0.74, 72.59 3.36, 71 7.3 M63.7 0 C66.99 0.27, 72.33 2.79, 71 7.3 M71 7.3 C70.47 10.68, 72.25 16.39, 71 21.9 M71 7.3 C70.63 11.07, 71.27 15.91, 71 21.9 M71 21.9 C70.52 26.08, 69.5 27.57, 63.7 29.2 M71 21.9 C68.87 27.18, 68.3 29.94, 63.7 29.2 M63.7 29.2 C41.66 29.46, 17.97 28.94, 7.3 29.2 M63.7 29.2 C49.57 28.58, 36.33 28.19, 7.3 29.2 M7.3 29.2 C1.84 27.43, -1.78 27.51, 0 21.9 M7.3 29.2 C1.51 29.65, 1.88 26.38, 0 21.9 M0 21.9 C0.74 15.07, -0.23 11.64, 0 7.3 M0 21.9 C0.48 18.63, -0.74 14.61, 0 7.3 M0 7.3 C0.91 1.68, 1.29 -0.58, 7.3 0 M0 7.3 C-1.47 1.84, 4.32 -0.13, 7.3 0" stroke="#000000" stroke-width="1" fill="none"></path></g><g transform="translate(62.75 317) rotate(0 18.75 9.600000000000023)"><text x="18.75" y="0" font-family="Cascadia, Segoe UI Emoji" font-size="16px" fill="#000000" text-anchor="middle" style="white-space: pre;" direction="ltr" dominant-baseline="text-before-edge">key2</text></g></svg>