<svg version="1.1" xmlns="http://www.w3.org/2000/svg" viewBox="0 0 1132 879.8207547169811" width="1132" height="879.8207547169811">
  <!-- svg-source:excalidraw -->
  
  <defs>
    <style class="style-fonts">
      @font-face {
        font-family: "Virgil";
        src: url("https://excalidraw.com/Virgil.woff2");
      }
      @font-face {
        font-family: "Cascadia";
        src: url("https://excalidraw.com/Cascadia.woff2");
      }
    </style>
  </defs>
  <rect x="0" y="0" width="1132" height="879.8207547169811" fill="#ffffff"></rect><g stroke-linecap="round" transform="translate(22 141) rotate(0 111 158.82075471698113)"><path d="M32 0 M32 0 C79.02 0, 126.04 0, 190 0 M32 0 C73.4 0, 114.8 0, 190 0 M190 0 C211.33 0, 222 10.67, 222 32 M190 0 C211.33 0, 222 10.67, 222 32 M222 32 C222 94.02, 222 156.04, 222 285.64 M222 32 C222 120.87, 222 209.75, 222 285.64 M222 285.64 C222 306.97, 211.33 317.64, 190 317.64 M222 285.64 C222 306.97, 211.33 317.64, 190 317.64 M190 317.64 C153.91 317.64, 117.82 317.64, 32 317.64 M190 317.64 C130.52 317.64, 71.05 317.64, 32 317.64 M32 317.64 C10.67 317.64, 0 306.97, 0 285.64 M32 317.64 C10.67 317.64, 0 306.97, 0 285.64 M0 285.64 C0 215.2, 0 144.76, 0 32 M0 285.64 C0 214.1, 0 142.57, 0 32 M0 32 C0 10.67, 10.67 0, 32 0 M0 32 C0 10.67, 10.67 0, 32 0" stroke="#000000" stroke-width="2" fill="none"></path></g><g stroke-linecap="round" transform="translate(31.773584905660414 161.2452830188679) rotate(0 35.5 15.5)"><path d="M7.75 0 M7.75 0 C25.22 0, 42.68 0, 63.25 0 M7.75 0 C26.11 0, 44.47 0, 63.25 0 M63.25 0 C68.42 0, 71 2.58, 71 7.75 M63.25 0 C68.42 0, 71 2.58, 71 7.75 M71 7.75 C71 12.64, 71 17.53, 71 23.25 M71 7.75 C71 10.95, 71 14.15, 71 23.25 M71 23.25 C71 28.42, 68.42 31, 63.25 31 M71 23.25 C71 28.42, 68.42 31, 63.25 31 M63.25 31 C42.35 31, 21.45 31, 7.75 31 M63.25 31 C42.49 31, 21.73 31, 7.75 31 M7.75 31 C2.58 31, 0 28.42, 0 23.25 M7.75 31 C2.58 31, 0 28.42, 0 23.25 M0 23.25 C0 17.11, 0 10.96, 0 7.75 M0 23.25 C0 17.97, 0 12.7, 0 7.75 M0 7.75 C0 2.58, 2.58 0, 7.75 0 M0 7.75 C0 2.58, 2.58 0, 7.75 0" stroke="#000000" stroke-width="2" fill="none"></path></g><g transform="translate(43.836084905660414 167.14528301886787) rotate(0 23.4375 9.599999999999994)"><text x="23.4375" y="0" font-family="Cascadia, Segoe UI Emoji" font-size="16px" fill="#000000" text-anchor="middle" style="white-space: pre;" direction="ltr" dominant-baseline="text-before-edge">ctime</text></g><g stroke-linecap="round" transform="translate(29.773584905660414 212.90566037735846) rotate(0 36.575471698113176 14.599999999999994)"><path d="M7.3 0 M7.3 0 C26.52 0, 45.73 0, 65.85 0 M7.3 0 C26.84 0, 46.38 0, 65.85 0 M65.85 0 C70.72 0, 73.15 2.43, 73.15 7.3 M65.85 0 C70.72 0, 73.15 2.43, 73.15 7.3 M73.15 7.3 C73.15 11.73, 73.15 16.16, 73.15 21.9 M73.15 7.3 C73.15 12.05, 73.15 16.8, 73.15 21.9 M73.15 21.9 C73.15 26.77, 70.72 29.2, 65.85 29.2 M73.15 21.9 C73.15 26.77, 70.72 29.2, 65.85 29.2 M65.85 29.2 C51.19 29.2, 36.53 29.2, 7.3 29.2 M65.85 29.2 C47.31 29.2, 28.76 29.2, 7.3 29.2 M7.3 29.2 C2.43 29.2, 0 26.77, 0 21.9 M7.3 29.2 C2.43 29.2, 0 26.77, 0 21.9 M0 21.9 C0 18.56, 0 15.23, 0 7.3 M0 21.9 C0 17.24, 0 12.59, 0 7.3 M0 7.3 C0 2.43, 2.43 0, 7.3 0 M0 7.3 C0 2.43, 2.43 0, 7.3 0" stroke="#000000" stroke-width="2" fill="none"></path></g><g transform="translate(47.59905660377353 217.90566037735846) rotate(0 18.75 9.599999999999994)"><text x="18.75" y="0" font-family="Cascadia, Segoe UI Emoji" font-size="16px" fill="#000000" text-anchor="middle" style="white-space: pre;" direction="ltr" dominant-baseline="text-before-edge">note</text></g><g stroke-linecap="round" transform="translate(32.42452830188677 261.77358490566036) rotate(0 27.575471698113233 17)"><path d="M8.5 0 M8.5 0 C23.54 0, 38.59 0, 46.65 0 M8.5 0 C19.77 0, 31.04 0, 46.65 0 M46.65 0 C52.32 0, 55.15 2.83, 55.15 8.5 M46.65 0 C52.32 0, 55.15 2.83, 55.15 8.5 M55.15 8.5 C55.15 13.62, 55.15 18.75, 55.15 25.5 M55.15 8.5 C55.15 12.97, 55.15 17.45, 55.15 25.5 M55.15 25.5 C55.15 31.17, 52.32 34, 46.65 34 M55.15 25.5 C55.15 31.17, 52.32 34, 46.65 34 M46.65 34 C31.39 34, 16.14 34, 8.5 34 M46.65 34 C31.69 34, 16.72 34, 8.5 34 M8.5 34 C2.83 34, 0 31.17, 0 25.5 M8.5 34 C2.83 34, 0 31.17, 0 25.5 M0 25.5 C0 19.77, 0 14.04, 0 8.5 M0 25.5 C0 20.3, 0 15.1, 0 8.5 M0 8.5 C0 2.83, 2.83 0, 8.5 0 M0 8.5 C0 2.83, 2.83 0, 8.5 0" stroke="#000000" stroke-width="2" fill="none"></path></g><g transform="translate(42.14002227783203 266.77358490566036) rotate(0 17.85997772216797 12)"><text x="17.85997772216797" y="0" font-family="Virgil, Segoe UI Emoji" font-size="20px" fill="#5c940d" text-anchor="middle" style="white-space: pre;" direction="ltr" dominant-baseline="text-before-edge">file1</text></g><g stroke-linecap="round" transform="translate(32.82075471698113 310.64150943396226) rotate(0 27.575471698113233 17)"><path d="M8.5 0 M8.5 0 C22 0, 35.5 0, 46.65 0 M8.5 0 C20.7 0, 32.9 0, 46.65 0 M46.65 0 C52.32 0, 55.15 2.83, 55.15 8.5 M46.65 0 C52.32 0, 55.15 2.83, 55.15 8.5 M55.15 8.5 C55.15 12.33, 55.15 16.17, 55.15 25.5 M55.15 8.5 C55.15 13.46, 55.15 18.43, 55.15 25.5 M55.15 25.5 C55.15 31.17, 52.32 34, 46.65 34 M55.15 25.5 C55.15 31.17, 52.32 34, 46.65 34 M46.65 34 C36.87 34, 27.08 34, 8.5 34 M46.65 34 C35.1 34, 23.54 34, 8.5 34 M8.5 34 C2.83 34, 0 31.17, 0 25.5 M8.5 34 C2.83 34, 0 31.17, 0 25.5 M0 25.5 C0 20.54, 0 15.58, 0 8.5 M0 25.5 C0 19.34, 0 13.19, 0 8.5 M0 8.5 C0 2.83, 2.83 0, 8.5 0 M0 8.5 C0 2.83, 2.83 0, 8.5 0" stroke="#000000" stroke-width="2" fill="none"></path></g><g transform="translate(38.12625266021155 315.64150943396226) rotate(0 22.269973754882812 12)"><text x="22.269973754882812" y="0" font-family="Virgil, Segoe UI Emoji" font-size="20px" fill="#5c940d" text-anchor="middle" style="white-space: pre;" direction="ltr" dominant-baseline="text-before-edge">file2</text></g><g stroke-linecap="round" transform="translate(424 58.70125786163521) rotate(0 122 174.55974842767296)"><path d="M32 0 M32 0 C69.16 0, 106.32 0, 212 0 M32 0 C68.62 0, 105.24 0, 212 0 M212 0 C233.33 0, 244 10.67, 244 32 M212 0 C233.33 0, 244 10.67, 244 32 M244 32 C244 138.89, 244 245.79, 244 317.12 M244 32 C244 116.46, 244 200.91, 244 317.12 M244 317.12 C244 338.45, 233.33 349.12, 212 349.12 M244 317.12 C244 338.45, 233.33 349.12, 212 349.12 M212 349.12 C170.82 349.12, 129.63 349.12, 32 349.12 M212 349.12 C143.1 349.12, 74.19 349.12, 32 349.12 M32 349.12 C10.67 349.12, 0 338.45, 0 317.12 M32 349.12 C10.67 349.12, 0 338.45, 0 317.12 M0 317.12 C0 259.91, 0 202.71, 0 32 M0 317.12 C0 235.76, 0 154.4, 0 32 M0 32 C0 10.67, 10.67 0, 32 0 M0 32 C0 10.67, 10.67 0, 32 0" stroke="#000000" stroke-width="2" fill="none"></path></g><g stroke-linecap="round" transform="translate(434.74213836477975 80.95283018867917) rotate(0 31.075471698113233 17)"><path d="M8.5 0 M8.5 0 C20.74 0, 32.99 0, 53.65 0 M8.5 0 C24.16 0, 39.83 0, 53.65 0 M53.65 0 C59.32 0, 62.15 2.83, 62.15 8.5 M53.65 0 C59.32 0, 62.15 2.83, 62.15 8.5 M62.15 8.5 C62.15 13.68, 62.15 18.85, 62.15 25.5 M62.15 8.5 C62.15 11.92, 62.15 15.34, 62.15 25.5 M62.15 25.5 C62.15 31.17, 59.32 34, 53.65 34 M62.15 25.5 C62.15 31.17, 59.32 34, 53.65 34 M53.65 34 C43.45 34, 33.25 34, 8.5 34 M53.65 34 C37.85 34, 22.05 34, 8.5 34 M8.5 34 C2.83 34, 0 31.17, 0 25.5 M8.5 34 C2.83 34, 0 31.17, 0 25.5 M0 25.5 C0 18.94, 0 12.39, 0 8.5 M0 25.5 C0 21.03, 0 16.55, 0 8.5 M0 8.5 C0 2.83, 2.83 0, 8.5 0 M0 8.5 C0 2.83, 2.83 0, 8.5 0" stroke="#000000" stroke-width="2" fill="none"></path></g><g transform="translate(456.22761372500236 85.95283018867917) rotate(0 9.589996337890625 12)"><text x="9.589996337890625" y="0" font-family="Virgil, Segoe UI Emoji" font-size="20px" fill="#000000" text-anchor="middle" style="white-space: pre;" direction="ltr" dominant-baseline="text-before-edge">01</text></g><g stroke-linecap="round" transform="translate(435.74213836477975 135.73270440251565) rotate(0 30.308176100628884 17)"><path d="M8.5 0 M8.5 0 C25.22 0, 41.94 0, 52.12 0 M8.5 0 C17.54 0, 26.59 0, 52.12 0 M52.12 0 C57.78 0, 60.62 2.83, 60.62 8.5 M52.12 0 C57.78 0, 60.62 2.83, 60.62 8.5 M60.62 8.5 C60.62 14.23, 60.62 19.97, 60.62 25.5 M60.62 8.5 C60.62 15.02, 60.62 21.54, 60.62 25.5 M60.62 25.5 C60.62 31.17, 57.78 34, 52.12 34 M60.62 25.5 C60.62 31.17, 57.78 34, 52.12 34 M52.12 34 C36.33 34, 20.55 34, 8.5 34 M52.12 34 C37.61 34, 23.11 34, 8.5 34 M8.5 34 C2.83 34, 0 31.17, 0 25.5 M8.5 34 C2.83 34, 0 31.17, 0 25.5 M0 25.5 C0 21.27, 0 17.04, 0 8.5 M0 25.5 C0 19.26, 0 13.02, 0 8.5 M0 8.5 C0 2.83, 2.83 0, 8.5 0 M0 8.5 C0 2.83, 2.83 0, 8.5 0" stroke="#000000" stroke-width="2" fill="none"></path></g><g transform="translate(452.0503220948033 140.73270440251565) rotate(0 13.999992370605469 12)"><text x="13.999992370605469" y="0" font-family="Virgil, Segoe UI Emoji" font-size="20px" fill="#000000" text-anchor="middle" style="white-space: pre;" direction="ltr" dominant-baseline="text-before-edge">02</text></g><g stroke-linecap="round" transform="translate(438.35849056603774 191.44339622641496) rotate(0 30.308176100628884 17)"><path d="M8.5 0 M8.5 0 C17.41 0, 26.32 0, 52.12 0 M8.5 0 C19.75 0, 31 0, 52.12 0 M52.12 0 C57.78 0, 60.62 2.83, 60.62 8.5 M52.12 0 C57.78 0, 60.62 2.83, 60.62 8.5 M60.62 8.5 C60.62 15.15, 60.62 21.8, 60.62 25.5 M60.62 8.5 C60.62 14.87, 60.62 21.24, 60.62 25.5 M60.62 25.5 C60.62 31.17, 57.78 34, 52.12 34 M60.62 25.5 C60.62 31.17, 57.78 34, 52.12 34 M52.12 34 C42.1 34, 32.09 34, 8.5 34 M52.12 34 C39.74 34, 27.37 34, 8.5 34 M8.5 34 C2.83 34, 0 31.17, 0 25.5 M8.5 34 C2.83 34, 0 31.17, 0 25.5 M0 25.5 C0 21.07, 0 16.65, 0 8.5 M0 25.5 C0 21.86, 0 18.23, 0 8.5 M0 8.5 C0 2.83, 2.83 0, 8.5 0 M0 8.5 C0 2.83, 2.83 0, 8.5 0" stroke="#000000" stroke-width="2" fill="none"></path></g><g transform="translate(454.976671854655 196.44339622641496) rotate(0 13.689994812011719 12)"><text x="13.689994812011719" y="0" font-family="Virgil, Segoe UI Emoji" font-size="20px" fill="#000000" text-anchor="middle" style="white-space: pre;" direction="ltr" dominant-baseline="text-before-edge">03</text></g><g stroke-linecap="round" transform="translate(437.8930817610062 244.15408805031444) rotate(0 30.308176100628884 17)"><path d="M8.5 0 M8.5 0 C23.97 0, 39.45 0, 52.12 0 M8.5 0 C22.34 0, 36.18 0, 52.12 0 M52.12 0 C57.78 0, 60.62 2.83, 60.62 8.5 M52.12 0 C57.78 0, 60.62 2.83, 60.62 8.5 M60.62 8.5 C60.62 13.81, 60.62 19.11, 60.62 25.5 M60.62 8.5 C60.62 12.77, 60.62 17.05, 60.62 25.5 M60.62 25.5 C60.62 31.17, 57.78 34, 52.12 34 M60.62 25.5 C60.62 31.17, 57.78 34, 52.12 34 M52.12 34 C43.26 34, 34.4 34, 8.5 34 M52.12 34 C42.99 34, 33.87 34, 8.5 34 M8.5 34 C2.83 34, 0 31.17, 0 25.5 M8.5 34 C2.83 34, 0 31.17, 0 25.5 M0 25.5 C0 20.76, 0 16.02, 0 8.5 M0 25.5 C0 20.5, 0 15.5, 0 8.5 M0 8.5 C0 2.83, 2.83 0, 8.5 0 M0 8.5 C0 2.83, 2.83 0, 8.5 0" stroke="#000000" stroke-width="2" fill="none"></path></g><g transform="translate(454.92126671173287 249.15408805031444) rotate(0 13.279991149902344 12)"><text x="13.279991149902344" y="0" font-family="Virgil, Segoe UI Emoji" font-size="20px" fill="#000000" text-anchor="middle" style="white-space: pre;" direction="ltr" dominant-baseline="text-before-edge">04</text></g><g transform="translate(76 105) rotate(0 38.64996337890625 12)"><text x="0" y="0" font-family="Virgil, Segoe UI Emoji" font-size="20px" fill="#a61e4d" text-anchor="start" style="white-space: pre;" direction="ltr" dominant-baseline="text-before-edge">bucket0</text></g><g transform="translate(488.35003662109375 10) rotate(0 34.47996520996094 12)"><text x="0" y="0" font-family="Virgil, Segoe UI Emoji" font-size="20px" fill="#a61e4d" text-anchor="start" style="white-space: pre;" direction="ltr" dominant-baseline="text-before-edge">bucket1</text></g><g stroke-linecap="round" transform="translate(122 159) rotate(0 56 14.599999999999994)"><path d="M7.3 0 M7.3 0 C40.84 0, 74.38 0, 104.7 0 M7.3 0 C45.69 0, 84.08 0, 104.7 0 M104.7 0 C109.57 0, 112 2.43, 112 7.3 M104.7 0 C109.57 0, 112 2.43, 112 7.3 M112 7.3 C112 11.41, 112 15.51, 112 21.9 M112 7.3 C112 11.42, 112 15.53, 112 21.9 M112 21.9 C112 26.77, 109.57 29.2, 104.7 29.2 M112 21.9 C112 26.77, 109.57 29.2, 104.7 29.2 M104.7 29.2 C83.3 29.2, 61.9 29.2, 7.3 29.2 M104.7 29.2 C81.53 29.2, 58.36 29.2, 7.3 29.2 M7.3 29.2 C2.43 29.2, 0 26.77, 0 21.9 M7.3 29.2 C2.43 29.2, 0 26.77, 0 21.9 M0 21.9 C0 17.72, 0 13.54, 0 7.3 M0 21.9 C0 17.66, 0 13.42, 0 7.3 M0 7.3 C0 2.43, 2.43 0, 7.3 0 M0 7.3 C0 2.43, 2.43 0, 7.3 0" stroke="#000000" stroke-width="2" fill="none"></path></g><g transform="translate(140.5 164) rotate(0 37.5 9.599999999999994)"><text x="37.5" y="0" font-family="Cascadia, Segoe UI Emoji" font-size="16px" fill="#000000" text-anchor="middle" style="white-space: pre;" direction="ltr" dominant-baseline="text-before-edge">2023.1.1</text></g><g stroke-linecap="round" transform="translate(121 211.5) rotate(0 56 14.599999999999994)"><path d="M7.3 0 M7.3 0 C26.91 0, 46.51 0, 104.7 0 M7.3 0 C38.93 0, 70.56 0, 104.7 0 M104.7 0 C109.57 0, 112 2.43, 112 7.3 M104.7 0 C109.57 0, 112 2.43, 112 7.3 M112 7.3 C112 12.28, 112 17.26, 112 21.9 M112 7.3 C112 10.92, 112 14.55, 112 21.9 M112 21.9 C112 26.77, 109.57 29.2, 104.7 29.2 M112 21.9 C112 26.77, 109.57 29.2, 104.7 29.2 M104.7 29.2 C69.27 29.2, 33.83 29.2, 7.3 29.2 M104.7 29.2 C65.82 29.2, 26.94 29.2, 7.3 29.2 M7.3 29.2 C2.43 29.2, 0 26.77, 0 21.9 M7.3 29.2 C2.43 29.2, 0 26.77, 0 21.9 M0 21.9 C0 16.95, 0 12.01, 0 7.3 M0 21.9 C0 18.56, 0 15.22, 0 7.3 M0 7.3 C0 2.43, 2.43 0, 7.3 0 M0 7.3 C0 2.43, 2.43 0, 7.3 0" stroke="#000000" stroke-width="2" fill="none"></path></g><g transform="translate(158.25 216.5) rotate(0 18.75 9.599999999999994)"><text x="18.75" y="0" font-family="Cascadia, Segoe UI Emoji" font-size="16px" fill="#000000" text-anchor="middle" style="white-space: pre;" direction="ltr" dominant-baseline="text-before-edge">[u8]</text></g><g stroke-linecap="round" transform="translate(121 259.5) rotate(0 56 17)"><path d="M8.5 0 M8.5 0 C42.43 0, 76.35 0, 103.5 0 M8.5 0 C34.96 0, 61.43 0, 103.5 0 M103.5 0 C109.17 0, 112 2.83, 112 8.5 M103.5 0 C109.17 0, 112 2.83, 112 8.5 M112 8.5 C112 12.83, 112 17.16, 112 25.5 M112 8.5 C112 13.13, 112 17.77, 112 25.5 M112 25.5 C112 31.17, 109.17 34, 103.5 34 M112 25.5 C112 31.17, 109.17 34, 103.5 34 M103.5 34 C83.62 34, 63.74 34, 8.5 34 M103.5 34 C78.3 34, 53.09 34, 8.5 34 M8.5 34 C2.83 34, 0 31.17, 0 25.5 M8.5 34 C2.83 34, 0 31.17, 0 25.5 M0 25.5 C0 20.6, 0 15.71, 0 8.5 M0 25.5 C0 20.5, 0 15.49, 0 8.5 M0 8.5 C0 2.83, 2.83 0, 8.5 0 M0 8.5 C0 2.83, 2.83 0, 8.5 0" stroke="#000000" stroke-width="2" fill="none"></path></g><g transform="translate(137.20004272460938 264.5) rotate(0 39.799957275390625 12)"><text x="39.799957275390625" y="0" font-family="Virgil, Segoe UI Emoji" font-size="20px" fill="#a61e4d" text-anchor="middle" style="white-space: pre;" direction="ltr" dominant-baseline="text-before-edge">'bucket1'</text></g><g stroke-linecap="round" transform="translate(123 314.5) rotate(0 56 17)"><path d="M8.5 0 M8.5 0 C32.09 0, 55.67 0, 103.5 0 M8.5 0 C31.7 0, 54.91 0, 103.5 0 M103.5 0 C109.17 0, 112 2.83, 112 8.5 M103.5 0 C109.17 0, 112 2.83, 112 8.5 M112 8.5 C112 15.29, 112 22.07, 112 25.5 M112 8.5 C112 12.46, 112 16.41, 112 25.5 M112 25.5 C112 31.17, 109.17 34, 103.5 34 M112 25.5 C112 31.17, 109.17 34, 103.5 34 M103.5 34 C81.76 34, 60.02 34, 8.5 34 M103.5 34 C69.82 34, 36.14 34, 8.5 34 M8.5 34 C2.83 34, 0 31.17, 0 25.5 M8.5 34 C2.83 34, 0 31.17, 0 25.5 M0 25.5 C0 21.39, 0 17.29, 0 8.5 M0 25.5 C0 21.93, 0 18.36, 0 8.5 M0 8.5 C0 2.83, 2.83 0, 8.5 0 M0 8.5 C0 2.83, 2.83 0, 8.5 0" stroke="#000000" stroke-width="2" fill="none"></path></g><g transform="translate(134.79004669189453 319.5) rotate(0 44.20995330810547 12)"><text x="44.20995330810547" y="0" font-family="Virgil, Segoe UI Emoji" font-size="20px" fill="#a61e4d" text-anchor="middle" style="white-space: pre;" direction="ltr" dominant-baseline="text-before-edge">'bucket2'</text></g><g mask="url(#mask-d2nPgAL3gi0EeKzJztVwt)" stroke-linecap="round"><g transform="translate(242.85602792781287 350.0109021137797) rotate(0 92.8695040009095 87.23269613462651)"><path d="M0 0 C30.96 29.08, 154.78 145.39, 185.74 174.47 M0 0 C30.96 29.08, 154.78 145.39, 185.74 174.47" stroke="#a61e4d" stroke-width="2" fill="none"></path></g><g transform="translate(242.85602792781287 350.0109021137797) rotate(0 92.8695040009095 87.23269613462651)"><path d="M158.17 162.64 C167.29 166.56, 176.42 170.47, 185.74 174.47 M158.17 162.64 C167.8 166.77, 177.42 170.9, 185.74 174.47" stroke="#a61e4d" stroke-width="2" fill="none"></path></g><g transform="translate(242.85602792781287 350.0109021137797) rotate(0 92.8695040009095 87.23269613462651)"><path d="M172.22 147.69 C176.69 156.55, 181.17 165.42, 185.74 174.47 M172.22 147.69 C176.94 157.04, 181.66 166.39, 185.74 174.47" stroke="#a61e4d" stroke-width="2" fill="none"></path></g></g><mask id="mask-d2nPgAL3gi0EeKzJztVwt"><rect x="0" y="0" fill="#fff" width="528.5950359296319" height="624.4762943830327"></rect><rect x="325.1786569287224" y="415.6435982484062" fill="#000" width="21.09375" height="43.199999999999996" opacity="1"></rect></mask><g transform="translate(325.1786569287224 415.6435982484062) rotate(0 10.546875 21.600000000000023)"><text x="10.546875" y="0" font-family="Cascadia, Segoe UI Emoji" font-size="36px" fill="#000000" text-anchor="middle" style="white-space: pre;" direction="ltr" dominant-baseline="text-before-edge">2</text></g><g mask="url(#mask-4zMcrVnLh5WGEBDWDG1FY)" stroke-linecap="round"><g transform="translate(240.6936936936936 276.37163870354163) rotate(0 85.60810810810813 -103.20491283917713)"><path d="M0 0 C28.54 -34.4, 142.68 -172.01, 171.22 -206.41 M0 0 C28.54 -34.4, 142.68 -172.01, 171.22 -206.41" stroke="#a61e4d" stroke-width="2" fill="none"></path></g><g transform="translate(240.6936936936936 276.37163870354163) rotate(0 85.60810810810813 -103.20491283917713)"><path d="M161.12 -178.16 C165.15 -189.45, 169.19 -200.73, 171.22 -206.41 M161.12 -178.16 C164.71 -188.21, 168.3 -198.26, 171.22 -206.41" stroke="#a61e4d" stroke-width="2" fill="none"></path></g><g transform="translate(240.6936936936936 276.37163870354163) rotate(0 85.60810810810813 -103.20491283917713)"><path d="M145.32 -191.26 C155.67 -197.31, 166.01 -203.36, 171.22 -206.41 M145.32 -191.26 C154.54 -196.65, 163.75 -202.04, 171.22 -206.41" stroke="#a61e4d" stroke-width="2" fill="none"></path></g></g><mask id="mask-4zMcrVnLh5WGEBDWDG1FY"><rect x="0" y="0" fill="#fff" width="511.90990990990986" height="582.7814643818958"></rect><rect x="315.75492680180173" y="151.56672586436446" fill="#000" width="21.09375" height="43.199999999999996" opacity="1"></rect></mask><g transform="translate(315.75492680180173 151.56672586436446) rotate(0 10.546875 21.60000000000005)"><text x="10.546875" y="0" font-family="Cascadia, Segoe UI Emoji" font-size="36px" fill="#000000" text-anchor="middle" style="white-space: pre;" direction="ltr" dominant-baseline="text-before-edge">1</text></g><g stroke-linecap="round" transform="translate(534 83) rotate(0 59.5 17)"><path d="M8.5 0 M8.5 0 C36.59 0, 64.68 0, 110.5 0 M8.5 0 C44.5 0, 80.5 0, 110.5 0 M110.5 0 C116.17 0, 119 2.83, 119 8.5 M110.5 0 C116.17 0, 119 2.83, 119 8.5 M119 8.5 C119 15.14, 119 21.79, 119 25.5 M119 8.5 C119 12.81, 119 17.12, 119 25.5 M119 25.5 C119 31.17, 116.17 34, 110.5 34 M119 25.5 C119 31.17, 116.17 34, 110.5 34 M110.5 34 C88.98 34, 67.46 34, 8.5 34 M110.5 34 C83.67 34, 56.83 34, 8.5 34 M8.5 34 C2.83 34, 0 31.17, 0 25.5 M8.5 34 C2.83 34, 0 31.17, 0 25.5 M0 25.5 C0 19.15, 0 12.79, 0 8.5 M0 25.5 C0 19.31, 0 13.12, 0 8.5 M0 8.5 C0 2.83, 2.83 0, 8.5 0 M0 8.5 C0 2.83, 2.83 0, 8.5 0" stroke="#000000" stroke-width="2" fill="none"></path></g><g transform="translate(570.2600173950195 88) rotate(0 23.23998260498047 12)"><text x="23.23998260498047" y="0" font-family="Virgil, Segoe UI Emoji" font-size="20px" fill="#000000" text-anchor="middle" style="white-space: pre;" direction="ltr" dominant-baseline="text-before-edge">[u8]</text></g><g stroke-linecap="round" transform="translate(534 135) rotate(0 60 17)"><path d="M8.5 0 M8.5 0 C48.75 0, 88.99 0, 111.5 0 M8.5 0 C34.62 0, 60.74 0, 111.5 0 M111.5 0 C117.17 0, 120 2.83, 120 8.5 M111.5 0 C117.17 0, 120 2.83, 120 8.5 M120 8.5 C120 12.09, 120 15.67, 120 25.5 M120 8.5 C120 12.97, 120 17.44, 120 25.5 M120 25.5 C120 31.17, 117.17 34, 111.5 34 M120 25.5 C120 31.17, 117.17 34, 111.5 34 M111.5 34 C73 34, 34.49 34, 8.5 34 M111.5 34 C74.01 34, 36.52 34, 8.5 34 M8.5 34 C2.83 34, 0 31.17, 0 25.5 M8.5 34 C2.83 34, 0 31.17, 0 25.5 M0 25.5 C0 20.16, 0 14.82, 0 8.5 M0 25.5 C0 18.84, 0 12.18, 0 8.5 M0 8.5 C0 2.83, 2.83 0, 8.5 0 M0 8.5 C0 2.83, 2.83 0, 8.5 0" stroke="#000000" stroke-width="2" fill="none"></path></g><g transform="translate(570.7600173950195 140) rotate(0 23.23998260498047 12)"><text x="23.23998260498047" y="0" font-family="Virgil, Segoe UI Emoji" font-size="20px" fill="#000000" text-anchor="middle" style="white-space: pre;" direction="ltr" dominant-baseline="text-before-edge">[u8]</text></g><g stroke-linecap="round" transform="translate(536 192) rotate(0 59 17)"><path d="M8.5 0 M8.5 0 C42.4 0, 76.29 0, 109.5 0 M8.5 0 C44.21 0, 79.92 0, 109.5 0 M109.5 0 C115.17 0, 118 2.83, 118 8.5 M109.5 0 C115.17 0, 118 2.83, 118 8.5 M118 8.5 C118 12.53, 118 16.56, 118 25.5 M118 8.5 C118 13.25, 118 17.99, 118 25.5 M118 25.5 C118 31.17, 115.17 34, 109.5 34 M118 25.5 C118 31.17, 115.17 34, 109.5 34 M109.5 34 C80.09 34, 50.69 34, 8.5 34 M109.5 34 C76.2 34, 42.9 34, 8.5 34 M8.5 34 C2.83 34, 0 31.17, 0 25.5 M8.5 34 C2.83 34, 0 31.17, 0 25.5 M0 25.5 C0 19.62, 0 13.73, 0 8.5 M0 25.5 C0 21.05, 0 16.6, 0 8.5 M0 8.5 C0 2.83, 2.83 0, 8.5 0 M0 8.5 C0 2.83, 2.83 0, 8.5 0" stroke="#000000" stroke-width="2" fill="none"></path></g><g transform="translate(571.7600173950195 197) rotate(0 23.23998260498047 12)"><text x="23.23998260498047" y="0" font-family="Virgil, Segoe UI Emoji" font-size="20px" fill="#000000" text-anchor="middle" style="white-space: pre;" direction="ltr" dominant-baseline="text-before-edge">[u8]</text></g><g stroke-linecap="round" transform="translate(538 248) rotate(0 56 17)"><path d="M8.5 0 M8.5 0 C35.05 0, 61.59 0, 103.5 0 M8.5 0 C30.53 0, 52.55 0, 103.5 0 M103.5 0 C109.17 0, 112 2.83, 112 8.5 M103.5 0 C109.17 0, 112 2.83, 112 8.5 M112 8.5 C112 12.78, 112 17.07, 112 25.5 M112 8.5 C112 13.08, 112 17.66, 112 25.5 M112 25.5 C112 31.17, 109.17 34, 103.5 34 M112 25.5 C112 31.17, 109.17 34, 103.5 34 M103.5 34 C75.19 34, 46.87 34, 8.5 34 M103.5 34 C81.99 34, 60.49 34, 8.5 34 M8.5 34 C2.83 34, 0 31.17, 0 25.5 M8.5 34 C2.83 34, 0 31.17, 0 25.5 M0 25.5 C0 20.24, 0 14.97, 0 8.5 M0 25.5 C0 20.13, 0 14.76, 0 8.5 M0 8.5 C0 2.83, 2.83 0, 8.5 0 M0 8.5 C0 2.83, 2.83 0, 8.5 0" stroke="#000000" stroke-width="2" fill="none"></path></g><g transform="translate(570.7600173950195 253) rotate(0 23.23998260498047 12)"><text x="23.23998260498047" y="0" font-family="Virgil, Segoe UI Emoji" font-size="20px" fill="#000000" text-anchor="middle" style="white-space: pre;" direction="ltr" dominant-baseline="text-before-edge">[u8]</text></g><g stroke-linecap="round" transform="translate(432 541.1792452830189) rotate(0 111 158.82075471698113)"><path d="M32 0 M32 0 C76.1 0, 120.21 0, 190 0 M32 0 C93.18 0, 154.36 0, 190 0 M190 0 C211.33 0, 222 10.67, 222 32 M190 0 C211.33 0, 222 10.67, 222 32 M222 32 C222 114.68, 222 197.35, 222 285.64 M222 32 C222 88.47, 222 144.95, 222 285.64 M222 285.64 C222 306.97, 211.33 317.64, 190 317.64 M222 285.64 C222 306.97, 211.33 317.64, 190 317.64 M190 317.64 C144.18 317.64, 98.35 317.64, 32 317.64 M190 317.64 C145.58 317.64, 101.17 317.64, 32 317.64 M32 317.64 C10.67 317.64, 0 306.97, 0 285.64 M32 317.64 C10.67 317.64, 0 306.97, 0 285.64 M0 285.64 C0 198.51, 0 111.38, 0 32 M0 285.64 C0 219.5, 0 153.36, 0 32 M0 32 C0 10.67, 10.67 0, 32 0 M0 32 C0 10.67, 10.67 0, 32 0" stroke="#000000" stroke-width="2" fill="none"></path></g><g stroke-linecap="round" transform="translate(441.7735849056603 561.4245283018868) rotate(0 28.273584905660414 14.311320754716974)"><path d="M7.16 0 M7.16 0 C23.43 0, 39.7 0, 49.39 0 M7.16 0 C18.2 0, 29.25 0, 49.39 0 M49.39 0 C54.16 0, 56.55 2.39, 56.55 7.16 M49.39 0 C54.16 0, 56.55 2.39, 56.55 7.16 M56.55 7.16 C56.55 11.72, 56.55 16.29, 56.55 21.47 M56.55 7.16 C56.55 10.49, 56.55 13.82, 56.55 21.47 M56.55 21.47 C56.55 26.24, 54.16 28.62, 49.39 28.62 M56.55 21.47 C56.55 26.24, 54.16 28.62, 49.39 28.62 M49.39 28.62 C32.54 28.62, 15.69 28.62, 7.16 28.62 M49.39 28.62 C38.05 28.62, 26.7 28.62, 7.16 28.62 M7.16 28.62 C2.39 28.62, 0 26.24, 0 21.47 M7.16 28.62 C2.39 28.62, 0 26.24, 0 21.47 M0 21.47 C0 16.53, 0 11.6, 0 7.16 M0 21.47 C0 17.12, 0 12.78, 0 7.16 M0 7.16 C0 2.39, 2.39 0, 7.16 0 M0 7.16 C0 2.39, 2.39 0, 7.16 0" stroke="#000000" stroke-width="2" fill="none"></path></g><g stroke-linecap="round" transform="translate(441.7735849056603 613.0849056603774) rotate(0 27.575471698113233 13.962264150943383)"><path d="M6.98 0 M6.98 0 C19.4 0, 31.81 0, 48.17 0 M6.98 0 C19.81 0, 32.64 0, 48.17 0 M48.17 0 C52.82 0, 55.15 2.33, 55.15 6.98 M48.17 0 C52.82 0, 55.15 2.33, 55.15 6.98 M55.15 6.98 C55.15 9.8, 55.15 12.62, 55.15 20.94 M55.15 6.98 C55.15 12.33, 55.15 17.67, 55.15 20.94 M55.15 20.94 C55.15 25.6, 52.82 27.92, 48.17 27.92 M55.15 20.94 C55.15 25.6, 52.82 27.92, 48.17 27.92 M48.17 27.92 C37.92 27.92, 27.68 27.92, 6.98 27.92 M48.17 27.92 C37.5 27.92, 26.83 27.92, 6.98 27.92 M6.98 27.92 C2.33 27.92, 0 25.6, 0 20.94 M6.98 27.92 C2.33 27.92, 0 25.6, 0 20.94 M0 20.94 C0 16.69, 0 12.44, 0 6.98 M0 20.94 C0 16.78, 0 12.63, 0 6.98 M0 6.98 C0 2.33, 2.33 0, 6.98 0 M0 6.98 C0 2.33, 2.33 0, 6.98 0" stroke="#000000" stroke-width="2" fill="none"></path></g><g stroke-linecap="round" transform="translate(442.42452830188677 661.9528301886792) rotate(0 27.575471698113233 17)"><path d="M8.5 0 M8.5 0 C19.13 0, 29.76 0, 46.65 0 M8.5 0 C22.07 0, 35.64 0, 46.65 0 M46.65 0 C52.32 0, 55.15 2.83, 55.15 8.5 M46.65 0 C52.32 0, 55.15 2.83, 55.15 8.5 M55.15 8.5 C55.15 12.41, 55.15 16.31, 55.15 25.5 M55.15 8.5 C55.15 14.83, 55.15 21.17, 55.15 25.5 M55.15 25.5 C55.15 31.17, 52.32 34, 46.65 34 M55.15 25.5 C55.15 31.17, 52.32 34, 46.65 34 M46.65 34 C32.37 34, 18.08 34, 8.5 34 M46.65 34 C32.52 34, 18.39 34, 8.5 34 M8.5 34 C2.83 34, 0 31.17, 0 25.5 M8.5 34 C2.83 34, 0 31.17, 0 25.5 M0 25.5 C0 18.84, 0 12.17, 0 8.5 M0 25.5 C0 19.13, 0 12.77, 0 8.5 M0 8.5 C0 2.83, 2.83 0, 8.5 0 M0 8.5 C0 2.83, 2.83 0, 8.5 0" stroke="#000000" stroke-width="2" fill="none"></path></g><g transform="translate(452.14002227783203 666.9528301886792) rotate(0 17.85997772216797 12)"><text x="17.85997772216797" y="0" font-family="Virgil, Segoe UI Emoji" font-size="20px" fill="#5c940d" text-anchor="middle" style="white-space: pre;" direction="ltr" dominant-baseline="text-before-edge">file1</text></g><g stroke-linecap="round" transform="translate(442.8207547169811 710.8207547169811) rotate(0 27.575471698113233 17)"><path d="M8.5 0 M8.5 0 C16.57 0, 24.65 0, 46.65 0 M8.5 0 C19.65 0, 30.8 0, 46.65 0 M46.65 0 C52.32 0, 55.15 2.83, 55.15 8.5 M46.65 0 C52.32 0, 55.15 2.83, 55.15 8.5 M55.15 8.5 C55.15 15.05, 55.15 21.59, 55.15 25.5 M55.15 8.5 C55.15 12.61, 55.15 16.72, 55.15 25.5 M55.15 25.5 C55.15 31.17, 52.32 34, 46.65 34 M55.15 25.5 C55.15 31.17, 52.32 34, 46.65 34 M46.65 34 C36.05 34, 25.45 34, 8.5 34 M46.65 34 C32.9 34, 19.15 34, 8.5 34 M8.5 34 C2.83 34, 0 31.17, 0 25.5 M8.5 34 C2.83 34, 0 31.17, 0 25.5 M0 25.5 C0 21.61, 0 17.73, 0 8.5 M0 25.5 C0 21, 0 16.51, 0 8.5 M0 8.5 C0 2.83, 2.83 0, 8.5 0 M0 8.5 C0 2.83, 2.83 0, 8.5 0" stroke="#000000" stroke-width="2" fill="none"></path></g><g transform="translate(448.12625266021155 715.8207547169811) rotate(0 22.269973754882812 12)"><text x="22.269973754882812" y="0" font-family="Virgil, Segoe UI Emoji" font-size="20px" fill="#5c940d" text-anchor="middle" style="white-space: pre;" direction="ltr" dominant-baseline="text-before-edge">file2</text></g><g transform="translate(486 505.1792452830189) rotate(0 38.88996124267578 12)"><text x="0" y="0" font-family="Virgil, Segoe UI Emoji" font-size="20px" fill="#a61e4d" text-anchor="start" style="white-space: pre;" direction="ltr" dominant-baseline="text-before-edge">bucket2</text></g><g stroke-linecap="round" transform="translate(532 559.1792452830189) rotate(0 56 14.5)"><path d="M7.25 0 M7.25 0 C32.75 0, 58.25 0, 104.75 0 M7.25 0 C35.05 0, 62.86 0, 104.75 0 M104.75 0 C109.58 0, 112 2.42, 112 7.25 M104.75 0 C109.58 0, 112 2.42, 112 7.25 M112 7.25 C112 10.63, 112 14, 112 21.75 M112 7.25 C112 12.35, 112 17.44, 112 21.75 M112 21.75 C112 26.58, 109.58 29, 104.75 29 M112 21.75 C112 26.58, 109.58 29, 104.75 29 M104.75 29 C78.56 29, 52.36 29, 7.25 29 M104.75 29 C81.63 29, 58.5 29, 7.25 29 M7.25 29 C2.42 29, 0 26.58, 0 21.75 M7.25 29 C2.42 29, 0 26.58, 0 21.75 M0 21.75 C0 17.35, 0 12.94, 0 7.25 M0 21.75 C0 17.72, 0 13.69, 0 7.25 M0 7.25 C0 2.42, 2.42 0, 7.25 0 M0 7.25 C0 2.42, 2.42 0, 7.25 0" stroke="#000000" stroke-width="2" fill="none"></path></g><g stroke-linecap="round" transform="translate(537 611.6792452830189) rotate(0 56 14.5)"><path d="M7.25 0 M7.25 0 C37.62 0, 67.99 0, 104.75 0 M7.25 0 C30.04 0, 52.83 0, 104.75 0 M104.75 0 C109.58 0, 112 2.42, 112 7.25 M104.75 0 C109.58 0, 112 2.42, 112 7.25 M112 7.25 C112 12.8, 112 18.35, 112 21.75 M112 7.25 C112 11.19, 112 15.13, 112 21.75 M112 21.75 C112 26.58, 109.58 29, 104.75 29 M112 21.75 C112 26.58, 109.58 29, 104.75 29 M104.75 29 C79.49 29, 54.23 29, 7.25 29 M104.75 29 C78.29 29, 51.82 29, 7.25 29 M7.25 29 C2.42 29, 0 26.58, 0 21.75 M7.25 29 C2.42 29, 0 26.58, 0 21.75 M0 21.75 C0 17.43, 0 13.11, 0 7.25 M0 21.75 C0 16.96, 0 12.18, 0 7.25 M0 7.25 C0 2.42, 2.42 0, 7.25 0 M0 7.25 C0 2.42, 2.42 0, 7.25 0" stroke="#000000" stroke-width="2" fill="none"></path></g><g stroke-linecap="round" transform="translate(531 659.6792452830189) rotate(0 56 17)"><path d="M8.5 0 M8.5 0 C42.29 0, 76.08 0, 103.5 0 M8.5 0 C30.2 0, 51.9 0, 103.5 0 M103.5 0 C109.17 0, 112 2.83, 112 8.5 M103.5 0 C109.17 0, 112 2.83, 112 8.5 M112 8.5 C112 14.83, 112 21.17, 112 25.5 M112 8.5 C112 14.79, 112 21.08, 112 25.5 M112 25.5 C112 31.17, 109.17 34, 103.5 34 M112 25.5 C112 31.17, 109.17 34, 103.5 34 M103.5 34 C68.32 34, 33.13 34, 8.5 34 M103.5 34 C82.08 34, 60.65 34, 8.5 34 M8.5 34 C2.83 34, 0 31.17, 0 25.5 M8.5 34 C2.83 34, 0 31.17, 0 25.5 M0 25.5 C0 19.13, 0 12.77, 0 8.5 M0 25.5 C0 18.87, 0 12.24, 0 8.5 M0 8.5 C0 2.83, 2.83 0, 8.5 0 M0 8.5 C0 2.83, 2.83 0, 8.5 0" stroke="#000000" stroke-width="2" fill="none"></path></g><g transform="translate(548.420036315918 664.6792452830189) rotate(0 38.57996368408203 12)"><text x="38.57996368408203" y="0" font-family="Virgil, Segoe UI Emoji" font-size="20px" fill="#a61e4d" text-anchor="middle" style="white-space: pre;" direction="ltr" dominant-baseline="text-before-edge">bucket3</text></g><g stroke-linecap="round" transform="translate(533 714.6792452830189) rotate(0 56 17)"><path d="M8.5 0 M8.5 0 C36.27 0, 64.03 0, 103.5 0 M8.5 0 C36.81 0, 65.13 0, 103.5 0 M103.5 0 C109.17 0, 112 2.83, 112 8.5 M103.5 0 C109.17 0, 112 2.83, 112 8.5 M112 8.5 C112 12.61, 112 16.72, 112 25.5 M112 8.5 C112 12.93, 112 17.37, 112 25.5 M112 25.5 C112 31.17, 109.17 34, 103.5 34 M112 25.5 C112 31.17, 109.17 34, 103.5 34 M103.5 34 C69.26 34, 35.03 34, 8.5 34 M103.5 34 C83.56 34, 63.61 34, 8.5 34 M8.5 34 C2.83 34, 0 31.17, 0 25.5 M8.5 34 C2.83 34, 0 31.17, 0 25.5 M0 25.5 C0 21, 0 16.51, 0 8.5 M0 25.5 C0 20.4, 0 15.3, 0 8.5 M0 8.5 C0 2.83, 2.83 0, 8.5 0 M0 8.5 C0 2.83, 2.83 0, 8.5 0" stroke="#000000" stroke-width="2" fill="none"></path></g><g transform="translate(545.5100479125977 719.6792452830189) rotate(0 43.489952087402344 12)"><text x="43.489952087402344" y="0" font-family="Virgil, Segoe UI Emoji" font-size="20px" fill="#a61e4d" text-anchor="middle" style="white-space: pre;" direction="ltr" dominant-baseline="text-before-edge">'bucket4'</text></g><g stroke-linecap="round" transform="translate(900 552.1792452830189) rotate(0 111 158.82075471698113)"><path d="M32 0 M32 0 C71.54 0, 111.09 0, 190 0 M32 0 C93.02 0, 154.03 0, 190 0 M190 0 C211.33 0, 222 10.67, 222 32 M190 0 C211.33 0, 222 10.67, 222 32 M222 32 C222 103.72, 222 175.43, 222 285.64 M222 32 C222 97.96, 222 163.91, 222 285.64 M222 285.64 C222 306.97, 211.33 317.64, 190 317.64 M222 285.64 C222 306.97, 211.33 317.64, 190 317.64 M190 317.64 C147.85 317.64, 105.71 317.64, 32 317.64 M190 317.64 C142.72 317.64, 95.45 317.64, 32 317.64 M32 317.64 C10.67 317.64, 0 306.97, 0 285.64 M32 317.64 C10.67 317.64, 0 306.97, 0 285.64 M0 285.64 C0 232.67, 0 179.7, 0 32 M0 285.64 C0 230.48, 0 175.32, 0 32 M0 32 C0 10.67, 10.67 0, 32 0 M0 32 C0 10.67, 10.67 0, 32 0" stroke="#000000" stroke-width="2" fill="none"></path></g><g stroke-linecap="round" transform="translate(909.7735849056603 574.4245283018868) rotate(0 28.273584905660414 14.311320754716974)"><path d="M7.16 0 M7.16 0 C16.44 0, 25.73 0, 49.39 0 M7.16 0 C17.21 0, 27.27 0, 49.39 0 M49.39 0 C54.16 0, 56.55 2.39, 56.55 7.16 M49.39 0 C54.16 0, 56.55 2.39, 56.55 7.16 M56.55 7.16 C56.55 10.63, 56.55 14.11, 56.55 21.47 M56.55 7.16 C56.55 11.63, 56.55 16.1, 56.55 21.47 M56.55 21.47 C56.55 26.24, 54.16 28.62, 49.39 28.62 M56.55 21.47 C56.55 26.24, 54.16 28.62, 49.39 28.62 M49.39 28.62 C40.37 28.62, 31.36 28.62, 7.16 28.62 M49.39 28.62 C36.79 28.62, 24.18 28.62, 7.16 28.62 M7.16 28.62 C2.39 28.62, 0 26.24, 0 21.47 M7.16 28.62 C2.39 28.62, 0 26.24, 0 21.47 M0 21.47 C0 16.21, 0 10.95, 0 7.16 M0 21.47 C0 16.25, 0 11.03, 0 7.16 M0 7.16 C0 2.39, 2.39 0, 7.16 0 M0 7.16 C0 2.39, 2.39 0, 7.16 0" stroke="#000000" stroke-width="2" fill="none"></path></g><g stroke-linecap="round" transform="translate(909.7735849056603 626.0849056603774) rotate(0 27.575471698113233 14.600000000000023)"><path d="M7.3 0 M7.3 0 C19.28 0, 31.27 0, 47.85 0 M7.3 0 C15.55 0, 23.8 0, 47.85 0 M47.85 0 C52.72 0, 55.15 2.43, 55.15 7.3 M47.85 0 C52.72 0, 55.15 2.43, 55.15 7.3 M55.15 7.3 C55.15 10.91, 55.15 14.51, 55.15 21.9 M55.15 7.3 C55.15 12.81, 55.15 18.32, 55.15 21.9 M55.15 21.9 C55.15 26.77, 52.72 29.2, 47.85 29.2 M55.15 21.9 C55.15 26.77, 52.72 29.2, 47.85 29.2 M47.85 29.2 C36.4 29.2, 24.96 29.2, 7.3 29.2 M47.85 29.2 C33.83 29.2, 19.81 29.2, 7.3 29.2 M7.3 29.2 C2.43 29.2, 0 26.77, 0 21.9 M7.3 29.2 C2.43 29.2, 0 26.77, 0 21.9 M0 21.9 C0 16.09, 0 10.27, 0 7.3 M0 21.9 C0 16.33, 0 10.77, 0 7.3 M0 7.3 C0 2.43, 2.43 0, 7.3 0 M0 7.3 C0 2.43, 2.43 0, 7.3 0" stroke="#000000" stroke-width="2" fill="none"></path></g><g transform="translate(918.5990566037735 631.0849056603774) rotate(0 18.75 9.600000000000023)"><text x="18.75" y="0" font-family="Cascadia, Segoe UI Emoji" font-size="16px" fill="#000000" text-anchor="middle" style="white-space: pre;" direction="ltr" dominant-baseline="text-before-edge">data</text></g><g stroke-linecap="round" transform="translate(910.4245283018868 674.9528301886792) rotate(0 27.575471698113233 17)"><path d="M8.5 0 M8.5 0 C16.93 0, 25.35 0, 46.65 0 M8.5 0 C18.34 0, 28.18 0, 46.65 0 M46.65 0 C52.32 0, 55.15 2.83, 55.15 8.5 M46.65 0 C52.32 0, 55.15 2.83, 55.15 8.5 M55.15 8.5 C55.15 13.66, 55.15 18.82, 55.15 25.5 M55.15 8.5 C55.15 13.27, 55.15 18.05, 55.15 25.5 M55.15 25.5 C55.15 31.17, 52.32 34, 46.65 34 M55.15 25.5 C55.15 31.17, 52.32 34, 46.65 34 M46.65 34 C34.13 34, 21.6 34, 8.5 34 M46.65 34 C37.7 34, 28.75 34, 8.5 34 M8.5 34 C2.83 34, 0 31.17, 0 25.5 M8.5 34 C2.83 34, 0 31.17, 0 25.5 M0 25.5 C0 18.87, 0 12.24, 0 8.5 M0 25.5 C0 20.76, 0 16.01, 0 8.5 M0 8.5 C0 2.83, 2.83 0, 8.5 0 M0 8.5 C0 2.83, 2.83 0, 8.5 0" stroke="#000000" stroke-width="2" fill="none"></path></g><g transform="translate(920.140022277832 679.9528301886792) rotate(0 17.85997772216797 12)"><text x="17.85997772216797" y="0" font-family="Virgil, Segoe UI Emoji" font-size="20px" fill="#5c940d" text-anchor="middle" style="white-space: pre;" direction="ltr" dominant-baseline="text-before-edge">file1</text></g><g stroke-linecap="round" transform="translate(910.8207547169814 723.8207547169811) rotate(0 27.575471698113233 17)"><path d="M8.5 0 M8.5 0 C20 0, 31.49 0, 46.65 0 M8.5 0 C20.56 0, 32.63 0, 46.65 0 M46.65 0 C52.32 0, 55.15 2.83, 55.15 8.5 M46.65 0 C52.32 0, 55.15 2.83, 55.15 8.5 M55.15 8.5 C55.15 13.42, 55.15 18.34, 55.15 25.5 M55.15 8.5 C55.15 13.33, 55.15 18.15, 55.15 25.5 M55.15 25.5 C55.15 31.17, 52.32 34, 46.65 34 M55.15 25.5 C55.15 31.17, 52.32 34, 46.65 34 M46.65 34 C31.68 34, 16.72 34, 8.5 34 M46.65 34 C32.39 34, 18.12 34, 8.5 34 M8.5 34 C2.83 34, 0 31.17, 0 25.5 M8.5 34 C2.83 34, 0 31.17, 0 25.5 M0 25.5 C0 21.01, 0 16.52, 0 8.5 M0 25.5 C0 21.48, 0 17.45, 0 8.5 M0 8.5 C0 2.83, 2.83 0, 8.5 0 M0 8.5 C0 2.83, 2.83 0, 8.5 0" stroke="#000000" stroke-width="2" fill="none"></path></g><g transform="translate(916.1262526602118 728.8207547169811) rotate(0 22.269973754882812 12)"><text x="22.269973754882812" y="0" font-family="Virgil, Segoe UI Emoji" font-size="20px" fill="#5c940d" text-anchor="middle" style="white-space: pre;" direction="ltr" dominant-baseline="text-before-edge">file2</text></g><g transform="translate(954 518.1792452830189) rotate(0 38.169960021972656 12)"><text x="0" y="0" font-family="Virgil, Segoe UI Emoji" font-size="20px" fill="#a61e4d" text-anchor="start" style="white-space: pre;" direction="ltr" dominant-baseline="text-before-edge">bucket4</text></g><g stroke-linecap="round" transform="translate(1000 572.1792452830189) rotate(0 56 14.5)"><path d="M7.25 0 M7.25 0 C30.46 0, 53.67 0, 104.75 0 M7.25 0 C34.26 0, 61.27 0, 104.75 0 M104.75 0 C109.58 0, 112 2.42, 112 7.25 M104.75 0 C109.58 0, 112 2.42, 112 7.25 M112 7.25 C112 11.78, 112 16.31, 112 21.75 M112 7.25 C112 11.35, 112 15.45, 112 21.75 M112 21.75 C112 26.58, 109.58 29, 104.75 29 M112 21.75 C112 26.58, 109.58 29, 104.75 29 M104.75 29 C75.66 29, 46.56 29, 7.25 29 M104.75 29 C81.55 29, 58.35 29, 7.25 29 M7.25 29 C2.42 29, 0 26.58, 0 21.75 M7.25 29 C2.42 29, 0 26.58, 0 21.75 M0 21.75 C0 16.46, 0 11.18, 0 7.25 M0 21.75 C0 17.49, 0 13.23, 0 7.25 M0 7.25 C0 2.42, 2.42 0, 7.25 0 M0 7.25 C0 2.42, 2.42 0, 7.25 0" stroke="#000000" stroke-width="2" fill="none"></path></g><g stroke-linecap="round" transform="translate(999 624.6792452830189) rotate(0 56 14.600000000000023)"><path d="M7.3 0 M7.3 0 C27.12 0, 46.93 0, 104.7 0 M7.3 0 C36.67 0, 66.05 0, 104.7 0 M104.7 0 C109.57 0, 112 2.43, 112 7.3 M104.7 0 C109.57 0, 112 2.43, 112 7.3 M112 7.3 C112 12.81, 112 18.32, 112 21.9 M112 7.3 C112 11.83, 112 16.36, 112 21.9 M112 21.9 C112 26.77, 109.57 29.2, 104.7 29.2 M112 21.9 C112 26.77, 109.57 29.2, 104.7 29.2 M104.7 29.2 C71.02 29.2, 37.35 29.2, 7.3 29.2 M104.7 29.2 C71.57 29.2, 38.44 29.2, 7.3 29.2 M7.3 29.2 C2.43 29.2, 0 26.77, 0 21.9 M7.3 29.2 C2.43 29.2, 0 26.77, 0 21.9 M0 21.9 C0 16.33, 0 10.77, 0 7.3 M0 21.9 C0 17.19, 0 12.48, 0 7.3 M0 7.3 C0 2.43, 2.43 0, 7.3 0 M0 7.3 C0 2.43, 2.43 0, 7.3 0" stroke="#000000" stroke-width="2" fill="none"></path></g><g transform="translate(1036.25 629.6792452830189) rotate(0 18.75 9.600000000000023)"><text x="18.75" y="0" font-family="Cascadia, Segoe UI Emoji" font-size="16px" fill="#000000" text-anchor="middle" style="white-space: pre;" direction="ltr" dominant-baseline="text-before-edge">[u8]</text></g><g stroke-linecap="round" transform="translate(999 672.6792452830189) rotate(0 56 17)"><path d="M8.5 0 M8.5 0 C33 0, 57.51 0, 103.5 0 M8.5 0 C33.84 0, 59.18 0, 103.5 0 M103.5 0 C109.17 0, 112 2.83, 112 8.5 M103.5 0 C109.17 0, 112 2.83, 112 8.5 M112 8.5 C112 13.27, 112 18.05, 112 25.5 M112 8.5 C112 14.87, 112 21.24, 112 25.5 M112 25.5 C112 31.17, 109.17 34, 103.5 34 M112 25.5 C112 31.17, 109.17 34, 103.5 34 M103.5 34 C81.21 34, 58.92 34, 8.5 34 M103.5 34 C68.03 34, 32.56 34, 8.5 34 M8.5 34 C2.83 34, 0 31.17, 0 25.5 M8.5 34 C2.83 34, 0 31.17, 0 25.5 M0 25.5 C0 20.76, 0 16.01, 0 8.5 M0 25.5 C0 19.15, 0 12.81, 0 8.5 M0 8.5 C0 2.83, 2.83 0, 8.5 0 M0 8.5 C0 2.83, 2.83 0, 8.5 0" stroke="#000000" stroke-width="2" fill="none"></path></g><g transform="translate(1020.5200347900391 677.6792452830189) rotate(0 34.47996520996094 12)"><text x="34.47996520996094" y="0" font-family="Virgil, Segoe UI Emoji" font-size="20px" fill="#a61e4d" text-anchor="middle" style="white-space: pre;" direction="ltr" dominant-baseline="text-before-edge">bucket1</text></g><g stroke-linecap="round" transform="translate(1001 727.6792452830189) rotate(0 56 17)"><path d="M8.5 0 M8.5 0 C38.54 0, 68.58 0, 103.5 0 M8.5 0 C44.22 0, 79.93 0, 103.5 0 M103.5 0 C109.17 0, 112 2.83, 112 8.5 M103.5 0 C109.17 0, 112 2.83, 112 8.5 M112 8.5 C112 13.33, 112 18.15, 112 25.5 M112 8.5 C112 13.13, 112 17.77, 112 25.5 M112 25.5 C112 31.17, 109.17 34, 103.5 34 M112 25.5 C112 31.17, 109.17 34, 103.5 34 M103.5 34 C67.98 34, 32.46 34, 8.5 34 M103.5 34 C76.97 34, 50.45 34, 8.5 34 M8.5 34 C2.83 34, 0 31.17, 0 25.5 M8.5 34 C2.83 34, 0 31.17, 0 25.5 M0 25.5 C0 21.48, 0 17.45, 0 8.5 M0 25.5 C0 19.28, 0 13.06, 0 8.5 M0 8.5 C0 2.83, 2.83 0, 8.5 0 M0 8.5 C0 2.83, 2.83 0, 8.5 0" stroke="#000000" stroke-width="2" fill="none"></path></g><g transform="translate(1022.5200347900391 732.6792452830189) rotate(0 34.47996520996094 12)"><text x="34.47996520996094" y="0" font-family="Virgil, Segoe UI Emoji" font-size="20px" fill="#a61e4d" text-anchor="middle" style="white-space: pre;" direction="ltr" dominant-baseline="text-before-edge">bucket1</text></g><g mask="url(#mask-JrhkR0V7KQ3KgXlqeHjsU)" stroke-linecap="round"><g transform="translate(656 734.1965510410573) rotate(0 113.5 -0.06011873523181066)"><path d="M0 0 C37.83 -0.02, 189.17 -0.1, 227 -0.12 M0 0 C37.83 -0.02, 189.17 -0.1, 227 -0.12" stroke="#a61e4d" stroke-width="2" fill="none"></path></g><g transform="translate(656 734.1965510410573) rotate(0 113.5 -0.06011873523181066)"><path d="M198.81 10.16 C209.4 6.29, 220 2.43, 227 -0.12 M198.81 10.16 C208.42 6.65, 218.04 3.15, 227 -0.12" stroke="#a61e4d" stroke-width="2" fill="none"></path></g><g transform="translate(656 734.1965510410573) rotate(0 113.5 -0.06011873523181066)"><path d="M198.8 -10.37 C209.4 -6.52, 219.99 -2.67, 227 -0.12 M198.8 -10.37 C208.42 -6.87, 218.03 -3.38, 227 -0.12" stroke="#a61e4d" stroke-width="2" fill="none"></path></g></g><mask id="mask-JrhkR0V7KQ3KgXlqeHjsU"><rect x="0" y="0" fill="#fff" width="983" height="834.3167885115209"></rect><rect x="758.953125" y="712.5364323058257" fill="#000" width="21.09375" height="43.199999999999996" opacity="1"></rect></mask><g transform="translate(758.953125 712.5364323058255) rotate(0 10.546875 21.599999999999966)"><text x="10.546875" y="0" font-family="Cascadia, Segoe UI Emoji" font-size="36px" fill="#a61e4d" text-anchor="middle" style="white-space: pre;" direction="ltr" dominant-baseline="text-before-edge">4</text></g><g transform="translate(10 606) rotate(0 140.625 12)"><text x="0" y="0" font-family="Cascadia, Segoe UI Emoji" font-size="20px" fill="#000000" text-anchor="start" style="white-space: pre;" direction="ltr" dominant-baseline="text-before-edge">bucket0:file2:file2:data</text></g><g stroke-linecap="round" transform="translate(888 247.17924528301887) rotate(0 115 85.82075471698113)"><path d="M32 0 M32 0 C74.11 0, 116.22 0, 198 0 M32 0 C92.25 0, 152.49 0, 198 0 M198 0 C219.33 0, 230 10.67, 230 32 M198 0 C219.33 0, 230 10.67, 230 32 M230 32 C230 56.25, 230 80.5, 230 139.64 M230 32 C230 64.86, 230 97.71, 230 139.64 M230 139.64 C230 160.97, 219.33 171.64, 198 171.64 M230 139.64 C230 160.97, 219.33 171.64, 198 171.64 M198 171.64 C136.2 171.64, 74.39 171.64, 32 171.64 M198 171.64 C146.91 171.64, 95.81 171.64, 32 171.64 M32 171.64 C10.67 171.64, 0 160.97, 0 139.64 M32 171.64 C10.67 171.64, 0 160.97, 0 139.64 M0 139.64 C0 105.87, 0 72.1, 0 32 M0 139.64 C0 110.38, 0 81.12, 0 32 M0 32 C0 10.67, 10.67 0, 32 0 M0 32 C0 10.67, 10.67 0, 32 0" stroke="#000000" stroke-width="2" fill="none"></path></g><g stroke-linecap="round" transform="translate(897.7735849056603 269.42452830188677) rotate(0 28.273584905660414 14.311320754716974)"><path d="M7.16 0 M7.16 0 C21.22 0, 35.28 0, 49.39 0 M7.16 0 C20.54 0, 33.93 0, 49.39 0 M49.39 0 C54.16 0, 56.55 2.39, 56.55 7.16 M49.39 0 C54.16 0, 56.55 2.39, 56.55 7.16 M56.55 7.16 C56.55 12.09, 56.55 17.03, 56.55 21.47 M56.55 7.16 C56.55 11.33, 56.55 15.5, 56.55 21.47 M56.55 21.47 C56.55 26.24, 54.16 28.62, 49.39 28.62 M56.55 21.47 C56.55 26.24, 54.16 28.62, 49.39 28.62 M49.39 28.62 C36.2 28.62, 23.01 28.62, 7.16 28.62 M49.39 28.62 C34.55 28.62, 19.71 28.62, 7.16 28.62 M7.16 28.62 C2.39 28.62, 0 26.24, 0 21.47 M7.16 28.62 C2.39 28.62, 0 26.24, 0 21.47 M0 21.47 C0 17.78, 0 14.09, 0 7.16 M0 21.47 C0 17.49, 0 13.52, 0 7.16 M0 7.16 C0 2.39, 2.39 0, 7.16 0 M0 7.16 C0 2.39, 2.39 0, 7.16 0" stroke="#000000" stroke-width="2" fill="none"></path></g><g stroke-linecap="round" transform="translate(897.7735849056603 321.08490566037744) rotate(0 27.575471698113233 14.600000000000023)"><path d="M7.3 0 M7.3 0 C17.79 0, 28.28 0, 47.85 0 M7.3 0 C22.24 0, 37.18 0, 47.85 0 M47.85 0 C52.72 0, 55.15 2.43, 55.15 7.3 M47.85 0 C52.72 0, 55.15 2.43, 55.15 7.3 M55.15 7.3 C55.15 12.71, 55.15 18.13, 55.15 21.9 M55.15 7.3 C55.15 12.35, 55.15 17.39, 55.15 21.9 M55.15 21.9 C55.15 26.77, 52.72 29.2, 47.85 29.2 M55.15 21.9 C55.15 26.77, 52.72 29.2, 47.85 29.2 M47.85 29.2 C38.61 29.2, 29.36 29.2, 7.3 29.2 M47.85 29.2 C32.66 29.2, 17.48 29.2, 7.3 29.2 M7.3 29.2 C2.43 29.2, 0 26.77, 0 21.9 M7.3 29.2 C2.43 29.2, 0 26.77, 0 21.9 M0 21.9 C0 18.4, 0 14.9, 0 7.3 M0 21.9 C0 17.29, 0 12.69, 0 7.3 M0 7.3 C0 2.43, 2.43 0, 7.3 0 M0 7.3 C0 2.43, 2.43 0, 7.3 0" stroke="#000000" stroke-width="2" fill="none"></path></g><g transform="translate(906.5990566037735 326.08490566037744) rotate(0 18.75 9.600000000000023)"><text x="18.75" y="0" font-family="Cascadia, Segoe UI Emoji" font-size="16px" fill="#000000" text-anchor="middle" style="white-space: pre;" direction="ltr" dominant-baseline="text-before-edge">data</text></g><g stroke-linecap="round" transform="translate(988 267.1792452830189) rotate(0 56 14.5)"><path d="M7.25 0 M7.25 0 C43.17 0, 79.08 0, 104.75 0 M7.25 0 C35.26 0, 63.27 0, 104.75 0 M104.75 0 C109.58 0, 112 2.42, 112 7.25 M104.75 0 C109.58 0, 112 2.42, 112 7.25 M112 7.25 C112 12.26, 112 17.27, 112 21.75 M112 7.25 C112 12.43, 112 17.61, 112 21.75 M112 21.75 C112 26.58, 109.58 29, 104.75 29 M112 21.75 C112 26.58, 109.58 29, 104.75 29 M104.75 29 C68.23 29, 31.72 29, 7.25 29 M104.75 29 C68.5 29, 32.25 29, 7.25 29 M7.25 29 C2.42 29, 0 26.58, 0 21.75 M7.25 29 C2.42 29, 0 26.58, 0 21.75 M0 21.75 C0 17.17, 0 12.6, 0 7.25 M0 21.75 C0 17.76, 0 13.76, 0 7.25 M0 7.25 C0 2.42, 2.42 0, 7.25 0 M0 7.25 C0 2.42, 2.42 0, 7.25 0" stroke="#000000" stroke-width="2" fill="none"></path></g><g stroke-linecap="round" transform="translate(987 319.6792452830189) rotate(0 56 14.600000000000023)"><path d="M7.3 0 M7.3 0 C44.25 0, 81.2 0, 104.7 0 M7.3 0 C41.61 0, 75.91 0, 104.7 0 M104.7 0 C109.57 0, 112 2.43, 112 7.3 M104.7 0 C109.57 0, 112 2.43, 112 7.3 M112 7.3 C112 12.76, 112 18.22, 112 21.9 M112 7.3 C112 11.35, 112 15.4, 112 21.9 M112 21.9 C112 26.77, 109.57 29.2, 104.7 29.2 M112 21.9 C112 26.77, 109.57 29.2, 104.7 29.2 M104.7 29.2 C74.45 29.2, 44.2 29.2, 7.3 29.2 M104.7 29.2 C85.14 29.2, 65.58 29.2, 7.3 29.2 M7.3 29.2 C2.43 29.2, 0 26.77, 0 21.9 M7.3 29.2 C2.43 29.2, 0 26.77, 0 21.9 M0 21.9 C0 16.62, 0 11.34, 0 7.3 M0 21.9 C0 18.68, 0 15.47, 0 7.3 M0 7.3 C0 2.43, 2.43 0, 7.3 0 M0 7.3 C0 2.43, 2.43 0, 7.3 0" stroke="#000000" stroke-width="2" fill="none"></path></g><g transform="translate(1024.25 324.6792452830189) rotate(0 18.75 9.600000000000023)"><text x="18.75" y="0" font-family="Cascadia, Segoe UI Emoji" font-size="16px" fill="#000000" text-anchor="middle" style="white-space: pre;" direction="ltr" dominant-baseline="text-before-edge">[u8]</text></g><g mask="url(#mask-i1uXDdk3kEPLxIqonK2mQ)" stroke-linecap="round"><g transform="translate(644 670) rotate(0 126 -125.5)"><path d="M0 0 C42 -41.83, 210 -209.17, 252 -251 M0 0 C42 -41.83, 210 -209.17, 252 -251" stroke="#a61e4d" stroke-width="2" fill="none"></path></g><g transform="translate(644 670) rotate(0 126 -125.5)"><path d="M239.27 -223.84 C244.22 -234.4, 249.17 -244.96, 252 -251 M239.27 -223.84 C244.35 -234.68, 249.43 -245.53, 252 -251" stroke="#a61e4d" stroke-width="2" fill="none"></path></g><g transform="translate(644 670) rotate(0 126 -125.5)"><path d="M224.79 -238.38 C235.37 -243.29, 245.95 -248.19, 252 -251 M224.79 -238.38 C235.65 -243.42, 246.52 -248.46, 252 -251" stroke="#a61e4d" stroke-width="2" fill="none"></path></g></g><mask id="mask-i1uXDdk3kEPLxIqonK2mQ"><rect x="0" y="0" fill="#fff" width="996" height="1021"></rect><rect x="759.453125" y="522.9000000000001" fill="#000" width="21.09375" height="43.199999999999996" opacity="1"></rect></mask><g transform="translate(759.453125 522.9) rotate(0 10.546875 21.600000000000023)"><text x="10.546875" y="0" font-family="Cascadia, Segoe UI Emoji" font-size="36px" fill="#a61e4d" text-anchor="middle" style="white-space: pre;" direction="ltr" dominant-baseline="text-before-edge">5</text></g></svg>